<?xml version="1.0" standalone="no"?>
  <!DOCTYPE svg PUBLIC "-//W3C//DTD SVG 1.1//EN" "http://www.w3.org/Graphics/SVG/1.1/DTD/svg11.dtd" >
  <svg>
  <metadata>
  Created by font-carrier
  </metadata>
  <defs>
  <font id="VWHead-Bold" horiz-adv-x="1163" vert-adv-y="1163" >
    <font-face
      
      font-family="VWHead-Bold"
      
      font-weight="400"
      
      font-stretch="normal"
      
      units-per-em="1000"
      
      ascent="998"
      
      descent="-221"
      
    />
      <missing-glyph />

      

      
      <glyph glyph-name="uni21" unicode="&#x21;" d="M213 529L185 240L96 240L68 529L68 680L213 680L213 529M78 8.50Q78 8.50 66.50 20.25Q55 32 55 71Q55 110 78 133.50Q101 157 140 157Q179 157 202 133.50Q225 110 225 71Q225 32 202 8.50Q179-15 140-15Q101-15 78 8.50Z"  horiz-adv-x="281" vert-adv-y="1000"  />

      
      <glyph glyph-name="uni22" unicode="&#x22;" d="M388 586L360 405L277 405L249 586L249 680L388 680L388 586M195 586L167 405L84 405L56 586L56 680L195 680L195 586Z"  horiz-adv-x="444" vert-adv-y="1000"  />

      
      <glyph glyph-name="uni23" unicode="&#x23;" d="M190 0L84 0L84 10L126 159L31 159L31 252L153 252L202 422L112 422L112 515L228 515L276 680L382 680L382 670L337 515L488 515L536 680L642 680L642 670L597 515L696 515L696 422L571 422L522 252L615 252L615 159L495 159L450 0L344 0L344 10L386 159L235 159L190 0M311 422L262 252L413 252L462 422L311 422Z"  horiz-adv-x="727" vert-adv-y="1000"  />

      
      <glyph glyph-name="uni24" unicode="&#x24;" d="M53 50L96 159Q165 114 259 103L259 287L227 298Q64 352 66 487Q66 570 115.50 624.50Q165 679 259 691L259 770L348 770L348 693Q445 680 514 646L472 535Q419 562 348 575L348 398Q447 367 492.50 321.50Q538 276 538 200Q538 115 488 59.50Q438 4 348-10L348-108L259-108L259-14Q143-3 53 50M196 499Q196 469 210 449.50Q224 430 261 417L261 581Q225 570 210.50 550.50Q196 531 196 499M407 188Q407 237 345 266L345 101Q407 125 407 188Z"  horiz-adv-x="590" vert-adv-y="1000"  />

      
      <glyph glyph-name="uni25" unicode="&#x25;" d="M129 503Q129 401 184 401Q243 401 243 503Q243 607 184 607Q129 607 129 503M339 503Q339 419 298 369.50Q257 320 184 320Q114 320 73 370Q32 420 32 503Q32 587 73 637.50Q114 688 184 688Q257 688 298 638Q339 588 339 503M566 175Q566 73 621 73Q680 73 680 175Q680 279 621 279Q566 279 566 175M776 175Q776 91 735 41.50Q694-8 621-8Q551-8 510 42Q469 92 469 175Q469 259 510 309.50Q551 360 621 360Q694 360 735 310Q776 260 776 175M230 0L126 0L126 10L582 680L686 680L686 670L230 0Z"  horiz-adv-x="808" vert-adv-y="1000"  />

      
      <glyph glyph-name="uni26" unicode="&#x26;" d="M608 370L701 308Q636 210 584 153L729 10L729 0L568 0L498 70Q389-15 267-15Q166-15 106 35.50Q46 86 46 170Q46 206 60 236.50Q74 267 102.50 291.50Q131 316 149.50 328Q168 340 202 359L209 363L207 365Q123 446 123 519Q123 593 179.50 644Q236 695 328 695Q412 695 469 643.50Q526 592 526 520Q526 464 495 426.50Q464 389 410 356L391 345L505 232Q548 282 608 370M284 104Q354 104 418 151L286 285L274 278Q250 265 235.50 255.50Q221 246 205 224.50Q189 203 189 179Q189 145 213.50 124.50Q238 104 284 104M256 514Q256 476 294 441L311 423L339 440Q399 473 399 514Q399 540 379 559.50Q359 579 328 579Q294 579 275 560.50Q256 542 256 514Z"  horiz-adv-x="743" vert-adv-y="1000"  />

      
      <glyph glyph-name="uni27" unicode="&#x27;" d="M195 586L167 405L84 405L56 586L56 680L195 680L195 586Z"  horiz-adv-x="251" vert-adv-y="1000"  />

      
      <glyph glyph-name="uni28" unicode="&#x28;" d="M79.50-6Q79.50-6 60.75 54.50Q42 115 42 251Q42 387 79.50 508Q117 629 176 716L254 682Q167 492 167 251Q167 10 254-180L176-214Q117-127 79.50-6Z"  horiz-adv-x="288" vert-adv-y="1000"  />

      
      <glyph glyph-name="uni29" unicode="&#x29;" d="M208.50 508Q208.50 508 227.25 447.50Q246 387 246 251Q246 115 208.50-6Q171-127 112-214L34-180Q121 10 121 251Q121 492 34 682L112 716Q171 629 208.50 508Z"  horiz-adv-x="288" vert-adv-y="1000"  />

      
      <glyph glyph-name="uni2a" unicode="&#x2a;" d="M185 461L183 462L93 395L45 479L149 524L149 526L45 571L92 655L182 588L184 589L172 700L269 700L256 589L258 588L348 655L396 571L292 527L292 525L396 479L349 395L258 463L256 462L269 349L172 349L185 461Z"  horiz-adv-x="441" vert-adv-y="1000"  />

      
      <glyph glyph-name="uni2b" unicode="&#x2b;" d="M347 536L347 323L549 323L549 220L347 220L347 6L240 6L240 220L39 220L39 323L240 323L240 536L347 536Z"  horiz-adv-x="590" vert-adv-y="1000"  />

      
      <glyph glyph-name="uni2c" unicode="&#x2c;" d="M15-161L15-151L81 142L216 142L216 132L116-161L15-161Z"  horiz-adv-x="270" vert-adv-y="1000"  />

      
      <glyph glyph-name="uni2d" unicode="&#x2d;" d="M352 220L62 220L62 323L352 323L352 220Z"  horiz-adv-x="414" vert-adv-y="1000"  />

      
      <glyph glyph-name="uni2e" unicode="&#x2e;" d="M74 8.50Q74 8.50 62.50 20.25Q51 32 51 71Q51 110 74 133.50Q97 157 136 157Q175 157 198 133.50Q221 110 221 71Q221 32 198 8.50Q175-15 136-15Q97-15 74 8.50Z"  horiz-adv-x="272" vert-adv-y="1000"  />

      
      <glyph glyph-name="uni2f" unicode="&#x2f;" d="M141 0L25 0L25 10L307 680L423 680L423 670L141 0Z"  horiz-adv-x="448" vert-adv-y="1000"  />

      
      <glyph glyph-name="uni30" unicode="&#x30;" d="M203 519.50Q203 519.50 189.50 491.25Q176 463 176 340Q176 217 203 160.50Q230 104 295 104Q359 104 385.50 160.50Q412 217 412 340Q412 463 385.50 519.50Q359 576 295 576Q230 576 203 519.50M295 695Q557 695 557 340Q557-15 295-15Q31-15 31 340Q31 695 295 695Z"  horiz-adv-x="590" vert-adv-y="1000"  />

      
      <glyph glyph-name="uni31" unicode="&#x31;" d="M124 505L112 505L112 624L280 680L384 680L384 116L516 116L516 0L92 0L92 116L245 116L245 542L243 542L124 505Z"  horiz-adv-x="590" vert-adv-y="1000"  />

      
      <glyph glyph-name="uni32" unicode="&#x32;" d="M243 118L243 116L529 116L529 0L54 0L54 100L308 347Q342 379 359.50 409Q377 439 377 479Q377 519 347.50 547.50Q318 576 273 576Q229 576 195 557.50Q161 539 125 505L52 595Q87 633 146 664Q205 695 273 695Q385 695 453.50 637.50Q522 580 522 479Q522 384 414 276L243 118Z"  horiz-adv-x="590" vert-adv-y="1000"  />

      
      <glyph glyph-name="uni33" unicode="&#x33;" d="M145 285L145 401L261 401Q369 401 369 490Q369 576 261 576Q180 576 97 542L57 650Q150 695 261 695Q385 695 449.50 644.50Q514 594 514 502Q514 446 483.50 407.50Q453 369 412 355L412 353Q466 334 499 290.50Q532 247 532 183Q532 91 461.50 38Q391-15 261-15Q133-15 41 36L78 146Q157 104 261 104Q317 104 352 127.50Q387 151 387 193Q387 241 358 263Q329 285 261 285L145 285Z"  horiz-adv-x="590" vert-adv-y="1000"  />

      
      <glyph glyph-name="uni34" unicode="&#x34;" d="M344 459L483 459L483 260L560 260L560 144L483 144L483 0L344 0L344 144L20 144L20 244L212 680L351 680L173 262L173 260L344 260L344 459Z"  horiz-adv-x="590" vert-adv-y="1000"  />

      
      <glyph glyph-name="uni35" unicode="&#x35;" d="M108 306L91 323L129 680L503 680L503 564L247 564L233 429Q255 431 277 431Q530 431 530 212Q530 105 454.50 45Q379-15 246-15Q148-15 43 22L75 139Q159 104 250 104Q317 104 351 132Q385 160 385 212Q385 312 245 312Q194 312 108 306Z"  horiz-adv-x="590" vert-adv-y="1000"  />

      
      <glyph glyph-name="uni36" unicode="&#x36;" d="M427 680L427 670L270 440L271 438Q299 451 346 451Q439 451 499 386.50Q559 322 559 221Q559 120 490 52.50Q421-15 299-15Q174-15 105.50 52Q37 119 37 221Q37 309 85 386L273 680L427 680M414 221Q414 332 299 332Q243 332 212.50 304.50Q182 277 182 221Q182 165 213 134.50Q244 104 299 104Q353 104 383.50 134.50Q414 165 414 221Z"  horiz-adv-x="590" vert-adv-y="1000"  />

      
      <glyph glyph-name="uni37" unicode="&#x37;" d="M127 0L127 10L382 562L382 564L63 564L63 680L533 680L533 580L273 0L127 0Z"  horiz-adv-x="590" vert-adv-y="1000"  />

      
      <glyph glyph-name="uni38" unicode="&#x38;" d="M208.50 129.50Q208.50 129.50 222.75 116.75Q237 104 295 104Q353 104 381.50 129.50Q410 155 410 199Q410 243 381.50 268.50Q353 294 295 294Q180 294 180 199Q180 155 208.50 129.50M120.50 643Q120.50 643 149.75 669Q179 695 295 695Q411 695 469.50 643Q528 591 528 505Q528 398 440 359L440 357Q493 336 524 291.50Q555 247 555 184Q555 92 488 38.50Q421-15 295-15Q169-15 102 38.50Q35 92 35 184Q35 247 66 291.50Q97 336 150 357L150 359Q62 398 62 505Q62 591 120.50 643M207 493Q207 493 207 451.50Q207 410 295 410Q383 410 383 493Q383 576 295 576Q207 576 207 493Z"  horiz-adv-x="590" vert-adv-y="1000"  />

      
      <glyph glyph-name="uni39" unicode="&#x39;" d="M162 0L162 10L319 240L318 242Q290 229 243 229Q150 229 90 293.50Q30 358 30 459Q30 560 99 627.50Q168 695 290 695Q413 695 482.50 627.50Q552 560 552 459Q552 371 504 294L316 0L162 0M175 459Q175 348 290 348Q346 348 376.50 375.50Q407 403 407 459Q407 515 376 545.50Q345 576 290 576Q236 576 205.50 545.50Q175 515 175 459Z"  horiz-adv-x="590" vert-adv-y="1000"  />

      
      <glyph glyph-name="uni3a" unicode="&#x3a;" d="M85 348.50Q85 348.50 73.50 360.25Q62 372 62 411Q62 450 85 473.50Q108 497 147 497Q186 497 209 473.50Q232 450 232 411Q232 372 209 348.50Q186 325 147 325Q108 325 85 348.50M85 8.50Q85 8.50 73.50 20.25Q62 32 62 71Q62 110 85 133.50Q108 157 147 157Q186 157 209 133.50Q232 110 232 71Q232 32 209 8.50Q186-15 147-15Q108-15 85 8.50Z"  horiz-adv-x="294" vert-adv-y="1000"  />

      
      <glyph glyph-name="uni3b" unicode="&#x3b;" d="M21-161L21-151L87 142L222 142L222 132L122-161L21-161M93 348.50Q93 348.50 81.50 360.25Q70 372 70 411Q70 450 93 473.50Q116 497 155 497Q194 497 217 473.50Q240 450 240 411Q240 372 217 348.50Q194 325 155 325Q116 325 93 348.50Z"  horiz-adv-x="295" vert-adv-y="1000"  />

      
      <glyph glyph-name="uni3c" unicode="&#x3c;" d="M534-4L524-4L24 221L24 320L524 545L534 545L534 436L144 272L144 269L534 105L534-4Z"  horiz-adv-x="590" vert-adv-y="1000"  />

      
      <glyph glyph-name="uni3d" unicode="&#x3d;" d="M530 333L60 333L60 436L530 436L530 333M530 107L60 107L60 210L530 210L530 107Z"  horiz-adv-x="590" vert-adv-y="1000"  />

      
      <glyph glyph-name="uni3e" unicode="&#x3e;" d="M66-4L56-4L56 105L446 269L446 272L56 436L56 545L66 545L566 320L566 221L66-4Z"  horiz-adv-x="590" vert-adv-y="1000"  />

      
      <glyph glyph-name="uni3f" unicode="&#x3f;" d="M290 240L181 240L175 369Q243 389 283.50 423Q324 457 324 500Q324 531 300.50 553.50Q277 576 236 576Q167 576 96 505L25 598Q57 635 114.50 665Q172 695 236 695Q344 695 406.50 644.50Q469 594 469 507Q469 382 303 302L290 240M173 8.50Q173 8.50 161.50 20.25Q150 32 150 71Q150 110 173 133.50Q196 157 235 157Q274 157 297 133.50Q320 110 320 71Q320 32 297 8.50Q274-15 235-15Q196-15 173 8.50Z"  horiz-adv-x="504" vert-adv-y="1000"  />

      
      <glyph glyph-name="uni40" unicode="&#x40;" d="M619-35L639-109Q557-140 458-140Q265-140 154-31Q43 78 43 280Q43 396 94.50 494Q146 592 248 653.50Q350 715 484 715Q661 715 765 608Q869 501 869 342Q869 207 805 127.50Q741 48 656 48Q567 48 533 112L531 112Q464 60 398 60Q329 60 285.50 108.50Q242 157 242 235Q242 341 299 423.50Q356 506 450 506Q507 506 563 459L564 459L587 494L665 494L617 228Q599 130 664 130Q711 130 746.50 184.50Q782 239 782 341Q782 468 707 551.50Q632 635 483 635Q320 635 227 531Q134 427 134 280Q134 120 218 29.50Q302-61 458-61Q527-61 619-35M508 183L541 386Q512 412 468 412Q416 412 384 362.50Q352 313 352 241Q352 155 425 155Q471 155 508 183Z"  horiz-adv-x="900" vert-adv-y="1000"  />

      
      <glyph glyph-name="uni41" unicode="&#x41;" d="M415 680L665 0L512 0L467 140L201 140L155 0L3 0L253 680L415 680M335 538L332 538L239 252L428 252L335 538Z"  horiz-adv-x="668" vert-adv-y="1000"  />

      
      <glyph glyph-name="uni42" unicode="&#x42;" d="M218 294L218 116L347 116Q409 116 436.50 137Q464 158 464 204Q464 251 436 272.50Q408 294 341 294L218 294M79 680L328 680Q454 680 517 635.50Q580 591 580 496Q580 444 555.50 408Q531 372 492 355L492 353Q609 313 609 194Q609 96 549 48Q489 0 359 0L79 0L79 680M218 564L218 404L322 404Q383 404 409 421.50Q435 439 435 483Q435 529 409.50 546.50Q384 564 320 564L218 564Z"  horiz-adv-x="652" vert-adv-y="1000"  />

      
      <glyph glyph-name="uni43" unicode="&#x43;" d="M132.50 81.50Q132.50 81.50 89.25 129.75Q46 178 46 340Q46 502 132.50 598.50Q219 695 377 695Q474 695 570 651L533 541Q453 576 377 576Q288 576 239.50 512Q191 448 191 340Q191 232 239.50 168Q288 104 377 104Q453 104 533 139L570 29Q474-15 377-15Q219-15 132.50 81.50Z"  horiz-adv-x="605" vert-adv-y="1000"  />

      
      <glyph glyph-name="uni44" unicode="&#x44;" d="M79 0L79 680L292 680Q478 680 559 595.50Q640 511 640 340Q640 169 559 84.50Q478 0 292 0L79 0M218 116L279 116Q406 116 450.50 167Q495 218 495 340Q495 462 450.50 513Q406 564 279 564L218 564L218 116Z"  horiz-adv-x="690" vert-adv-y="1000"  />

      
      <glyph glyph-name="uni45" unicode="&#x45;" d="M79 680L535 680L535 564L218 564L218 401L502 401L502 285L218 285L218 116L538 116L538 0L79 0L79 680Z"  horiz-adv-x="590" vert-adv-y="1000"  />

      
      <glyph glyph-name="uni46" unicode="&#x46;" d="M79 680L535 680L535 564L218 564L218 377L502 377L502 261L218 261L218 0L79 0L79 680Z"  horiz-adv-x="571" vert-adv-y="1000"  />

      
      <glyph glyph-name="uni47" unicode="&#x47;" d="M368 365L628 365L628 44Q515-15 369-15Q212-15 129 81.50Q46 178 46 340Q46 493 133.50 594Q221 695 389 695Q512 695 620 646L580 538Q488 576 389 576Q287 576 239 513.50Q191 451 191 340Q191 104 375 104Q445 104 489 122L489 249L368 266L368 365Z"  horiz-adv-x="686" vert-adv-y="1000"  />

      
      <glyph glyph-name="uni48" unicode="&#x48;" d="M504 0L504 285L218 285L218 0L79 0L79 680L218 680L218 401L504 401L504 680L643 680L643 0L504 0Z"  horiz-adv-x="722" vert-adv-y="1000"  />

      
      <glyph glyph-name="uni49" unicode="&#x49;" d="M218 680L218 0L79 0L79 680L218 680Z"  horiz-adv-x="297" vert-adv-y="1000"  />

      
      <glyph glyph-name="uni4a" unicode="&#x4a;" d="M7 56L70 156Q99 130 123.50 117Q148 104 184 104Q228 104 248.50 135Q269 166 269 216L269 680L408 680L408 207Q408 98 349.50 41.50Q291-15 184-15Q86-15 7 56Z"  horiz-adv-x="482" vert-adv-y="1000"  />

      
      <glyph glyph-name="uni4b" unicode="&#x4b;" d="M220 304L218 304L218 0L79 0L79 680L218 680L218 351L220 351L468 680L622 680L622 670L362 333L635 10L635 0L473 0L220 304Z"  horiz-adv-x="643" vert-adv-y="1000"  />

      
      <glyph glyph-name="uni4c" unicode="&#x4c;" d="M79 680L218 680L218 116L511 116L511 0L79 0L79 680Z"  horiz-adv-x="533" vert-adv-y="1000"  />

      
      <glyph glyph-name="uni4d" unicode="&#x4d;" d="M420 316L422 316L629 680L763 680L763 0L624 0L624 442L622 442L476 171L366 171L220 442L218 442L218 0L79 0L79 680L213 680L420 316Z"  horiz-adv-x="842" vert-adv-y="1000"  />

      
      <glyph glyph-name="uni4e" unicode="&#x4e;" d="M515 211L518 211L518 680L657 680L657 0L510 0L221 469L218 469L218 0L79 0L79 680L226 680L515 211Z"  horiz-adv-x="736" vert-adv-y="1000"  />

      
      <glyph glyph-name="uni4f" unicode="&#x4f;" d="M235.50 512Q235.50 512 213.75 480Q192 448 192 340Q192 232 235.50 168Q279 104 375 104Q470 104 513.50 168Q557 232 557 340Q557 448 513.50 512Q470 576 375 576Q279 576 235.50 512M619 596Q619 596 660.50 546.50Q702 497 702 340Q702 183 619 84Q536-15 375-15Q265-15 189.50 33.50Q114 82 80.50 160Q47 238 47 340Q47 442 80.50 520Q114 598 189.50 646.50Q265 695 375 695Q536 695 619 596Z"  horiz-adv-x="749" vert-adv-y="1000"  />

      
      <glyph glyph-name="uni50" unicode="&#x50;" d="M218 0L79 0L79 680L338 680Q456 680 511.50 619.50Q567 559 567 455Q567 351 511 290Q455 229 338 229L218 229L218 0M218 564L218 345L328 345Q422 345 422 455Q422 564 328 564L218 564Z"  horiz-adv-x="596" vert-adv-y="1000"  />

      
      <glyph glyph-name="uni51" unicode="&#x51;" d="M702 340Q702 144 584 50L732-22L670-137L432-11Q407-15 375-15Q265-15 189.50 33.50Q114 82 80.50 160Q47 238 47 340Q47 442 80.50 520Q114 598 189.50 646.50Q265 695 375 695Q536 695 619 596Q702 497 702 340M235.50 512Q235.50 512 213.75 480Q192 448 192 340Q192 232 235.50 168Q279 104 375 104Q470 104 513.50 168Q557 232 557 340Q557 448 513.50 512Q470 576 375 576Q279 576 235.50 512Z"  horiz-adv-x="749" vert-adv-y="1000"  />

      
      <glyph glyph-name="uni52" unicode="&#x52;" d="M218 0L79 0L79 680L366 680Q602 680 602 475Q602 314 453 278L639 16L639 0L487 0L305 269L218 269L218 0M218 385L359 385Q406 385 431.50 409Q457 433 457 475Q457 517 431.50 540.50Q406 564 359 564L218 564L218 385Z"  horiz-adv-x="664" vert-adv-y="1000"  />

      
      <glyph glyph-name="uni53" unicode="&#x53;" d="M38 50L81 159Q116 137 170.50 119.50Q225 102 269 102Q381 102 381 188Q381 220 360.50 237.50Q340 255 285 274L212 298Q51 350 51 487Q51 582 115 638.50Q179 695 298 695Q403 695 499 646L457 535Q369 578 298 578Q193 578 193 499Q193 471 208.50 452Q224 433 263 421L334 398Q432 367 477.50 321.50Q523 276 523 200Q523 100 455 42.50Q387-15 269-15Q152-15 38 50Z"  horiz-adv-x="561" vert-adv-y="1000"  />

      
      <glyph glyph-name="uni54" unicode="&#x54;" d="M23 680L545 680L545 564L353 564L353 0L214 0L214 564L23 564L23 680Z"  horiz-adv-x="568" vert-adv-y="1000"  />

      
      <glyph glyph-name="uni55" unicode="&#x55;" d="M71 680L210 680L210 279Q210 104 353 104Q427 104 461.50 151.50Q496 199 496 279L496 680L635 680L635 279Q635-15 353-15Q71-15 71 279L71 680Z"  horiz-adv-x="706" vert-adv-y="1000"  />

      
      <glyph glyph-name="uni56" unicode="&#x56;" d="M655 680L655 670L415 0L246 0L6 670L6 680L157 680L330 146L333 146L504 680L655 680Z"  horiz-adv-x="661" vert-adv-y="1000"  />

      
      <glyph glyph-name="uni57" unicode="&#x57;" d="M995 680L995 670L810 0L645 0L508 527L507 527L370 0L204 0L19 670L19 680L168 680L283 150L285 150L426 680L588 680L729 150L731 150L845 680L995 680Z"  horiz-adv-x="1014" vert-adv-y="1000"  />

      
      <glyph glyph-name="uni58" unicode="&#x58;" d="M21 680L172 680L311 424L313 424L453 680L603 680L603 670L411 341L603 10L603 0L451 0L313 257L311 257L173 0L21 0L21 10L212 341L21 670L21 680Z"  horiz-adv-x="624" vert-adv-y="1000"  />

      
      <glyph glyph-name="uni59" unicode="&#x59;" d="M-3 680L149 680L300 400L302 400L453 680L605 680L605 670L371 274L371 0L232 0L232 274L-3 670L-3 680Z"  horiz-adv-x="604" vert-adv-y="1000"  />

      
      <glyph glyph-name="uni5a" unicode="&#x5a;" d="M58 680L541 680L541 580L208 118L208 116L541 116L541 0L37 0L37 100L369 562L369 564L58 564L58 680Z"  horiz-adv-x="587" vert-adv-y="1000"  />

      
      <glyph glyph-name="uni5b" unicode="&#x5b;" d="M70 700L302 700L302 627L185 604L185-102L302-125L302-198L70-198L70 700Z"  horiz-adv-x="335" vert-adv-y="1000"  />

      
      <glyph glyph-name="uni5c" unicode="&#x5c;" d="M423 0L307 0L25 670L25 680L141 680L423 10L423 0Z"  horiz-adv-x="448" vert-adv-y="1000"  />

      
      <glyph glyph-name="uni5d" unicode="&#x5d;" d="M33 700L265 700L265-198L33-198L33-125L150-102L150 604L33 627L33 700Z"  horiz-adv-x="335" vert-adv-y="1000"  />

      
      <glyph glyph-name="uni5e" unicode="&#x5e;" d="M492 382L492 372L359 372L247 575L243 575L131 372L-2 372L-2 382L182 700L308 700L492 382Z"  horiz-adv-x="504" vert-adv-y="1000"  />

      
      <glyph glyph-name="uni5f" unicode="&#x5f;" d="M443-113L61-113L61-20L443-20L443-113Z"  horiz-adv-x="504" vert-adv-y="1000"  />

      
      <glyph glyph-name="uni60" unicode="&#x60;" d="M184 704L184 713L326 713L405 577L405 567L287 567L184 704Z"  horiz-adv-x="590" vert-adv-y="1000"  />

      
      <glyph glyph-name="uni61" unicode="&#x61;" d="M467 302L467 105Q467 93 469.50 90Q472 87 483 87L518 87L518-5Q481-12 448-12Q378-12 352 45L350 45Q323 22 279.50 3.50Q236-15 195-15Q116-15 74 27Q32 69 32 137Q32 218 88 256.50Q144 295 270 295L335 295L335 317Q335 357 309.50 371.50Q284 386 253 386Q171 386 93 351L61 454Q156 497 260 497Q363 497 415 446.50Q467 396 467 302M335 208L284 208Q161 208 161 149Q161 91 225 91Q289 91 335 124L335 208Z"  horiz-adv-x="543" vert-adv-y="1000"  />

      
      <glyph glyph-name="uni62" unicode="&#x62;" d="M198 357L198 125Q247 96 295 96Q353 96 381.50 135Q410 174 410 241Q410 308 381.50 347Q353 386 295 386Q247 386 198 357M63 700L198 700L198 447L200 447Q269 497 337 497Q437 497 492.50 424Q548 351 548 241Q548 131 492.50 58Q437-15 337-15Q304-15 272-4Q240 7 225.50 16Q211 25 184 43L182 43L163 0L63 0L63 700Z"  horiz-adv-x="586" vert-adv-y="1000"  />

      
      <glyph glyph-name="uni63" unicode="&#x63;" d="M105 54Q105 54 71.50 88.50Q38 123 38 241Q38 359 105 428Q172 497 294 497Q367 497 444 468L417 365Q352 386 310 386Q251 386 213.50 350.50Q176 315 176 241Q176 166 212.50 131Q249 96 310 96Q352 96 417 117L444 14Q367-15 294-15Q172-15 105 54Z"  horiz-adv-x="479" vert-adv-y="1000"  />

      
      <glyph glyph-name="uni64" unicode="&#x64;" d="M389 125L389 357Q340 386 292 386Q234 386 205.50 347Q177 308 177 241Q177 174 205.50 135Q234 96 292 96Q340 96 389 125M389 700L524 700L524 0L424 0L405 43L403 43Q378 25 362.50 15.50Q347 6 315-4.50Q283-15 250-15Q150-15 94.50 58Q39 131 39 241Q39 351 94.50 424Q150 497 250 497Q318 497 387 447L389 447L389 700Z"  horiz-adv-x="587" vert-adv-y="1000"  />

      
      <glyph glyph-name="uni65" unicode="&#x65;" d="M496 202L174 202Q178 151 209.50 122Q241 93 295 93Q366 93 449 123L480 26Q394-15 285-15Q165-15 101 57.50Q37 130 37 242Q37 350 101 423.50Q165 497 278 497Q389 497 446 438.50Q503 380 503 289Q503 242 496 202M174 286L379 286Q380 291 380 301Q380 399 279 399Q231 399 203.50 366Q176 333 174 286Z"  horiz-adv-x="539" vert-adv-y="1000"  />

      
      <glyph glyph-name="uni66" unicode="&#x66;" d="M240 0L105 0L105 379L20 379L20 452L105 482L105 546Q105 627 148.50 666Q192 705 269 705Q318 705 355 698L355 587Q322 594 290 594Q262 594 251 583Q240 572 240 540L240 482L360 482L360 379L240 379L240 0Z"  horiz-adv-x="381" vert-adv-y="1000"  />

      
      <glyph glyph-name="uni67" unicode="&#x67;" d="M388 132L388 356Q337 386 291 386Q177 386 177 244Q177 105 291 105Q339 105 388 132M523 482L523 31Q523-89 458.50-151Q394-213 274-213Q173-213 85-166L124-67Q191-102 274-102Q334-102 361-77.50Q388-53 388 6L388 42L386 42Q320-6 249-6Q148-6 93.50 64Q39 134 39 244Q39 354 94 425.50Q149 497 249 497Q262 497 275 495Q288 493 297.50 491.50Q307 490 319 485Q331 480 337 477.50Q343 475 354.50 467.50Q366 460 369.50 458Q373 456 385 447.50Q397 439 398 438L400 438L418 482L523 482Z"  horiz-adv-x="586" vert-adv-y="1000"  />

      
      <glyph glyph-name="uni68" unicode="&#x68;" d="M523 0L388 0L388 290Q388 386 302 386Q244 386 198 340L198 0L63 0L63 700L198 700L198 442L200 442Q260 497 344 497Q429 497 476 444.50Q523 392 523 303L523 0Z"  horiz-adv-x="581" vert-adv-y="1000"  />

      
      <glyph glyph-name="uni69" unicode="&#x69;" d="M198 0L63 0L63 482L198 482L198 0M74.50 586.50Q74.50 586.50 63.75 596.75Q53 607 53 640Q53 673 74.50 693.50Q96 714 131 714Q167 714 188.50 693.50Q210 673 210 640Q210 607 188.50 586.50Q167 566 131 566Q96 566 74.50 586.50Z"  horiz-adv-x="261" vert-adv-y="1000"  />

      
      <glyph glyph-name="uni6a" unicode="&#x6a;" d="M63 482L198 482L198-31Q198-213 25-213Q-8-213-45-206L-45-97Q-24-102 8-102Q37-102 50-87Q63-72 63-39L63 482M74.50 586.50Q74.50 586.50 63.75 596.75Q53 607 53 640Q53 673 74.50 693.50Q96 714 131 714Q167 714 188.50 693.50Q210 673 210 640Q210 607 188.50 586.50Q167 566 131 566Q96 566 74.50 586.50Z"  horiz-adv-x="261" vert-adv-y="1000"  />

      
      <glyph glyph-name="uni6b" unicode="&#x6b;" d="M200 223L198 223L198 0L63 0L63 700L198 700L198 265L200 265L369 482L516 482L516 472L333 248L525 10L525 0L372 0L200 223Z"  horiz-adv-x="538" vert-adv-y="1000"  />

      
      <glyph glyph-name="uni6c" unicode="&#x6c;" d="M61 700L196 700L196 108Q196 96 198.50 93Q201 90 212 90L265 90L265-2Q228-9 185-9Q117-9 89 24.50Q61 58 61 132L61 700Z"  horiz-adv-x="290" vert-adv-y="1000"  />

      
      <glyph glyph-name="uni6d" unicode="&#x6d;" d="M63 482L170 482L187 435L190 435Q259 497 345 497Q446 497 492 423L494 423Q496 424 506 433Q516 442 520.50 445.50Q525 449 536.50 457.50Q548 466 556.50 470Q565 474 578.50 480Q592 486 605 489Q618 492 635 494.50Q652 497 670 497Q756 497 801.50 445Q847 393 847 304L847 0L712 0L712 290Q712 339 693 362.50Q674 386 628 386Q577 386 519 340Q523 325 523 304L523 0L388 0L388 290Q388 338 368.50 362Q349 386 303 386Q253 386 198 345L198 0L63 0L63 482Z"  horiz-adv-x="905" vert-adv-y="1000"  />

      
      <glyph glyph-name="uni6e" unicode="&#x6e;" d="M63 482L171 482L189 435L191 435Q260 497 345 497Q429 497 476 444.50Q523 392 523 304L523 0L388 0L388 290Q388 386 302 386Q252 386 198 345L198 0L63 0L63 482Z"  horiz-adv-x="581" vert-adv-y="1000"  />

      
      <glyph glyph-name="uni6f" unicode="&#x6f;" d="M206.50 349Q206.50 349 190.75 330.50Q175 312 175 241Q175 170 206.50 133Q238 96 291 96Q346 96 377 133Q408 170 408 241Q408 312 377 349Q346 386 291 386Q238 386 206.50 349M479 424Q479 424 512.50 387.50Q546 351 546 241Q546 131 479 58Q412-15 291-15Q172-15 104.50 58Q37 131 37 241Q37 351 104.50 424Q172 497 291 497Q412 497 479 424Z"  horiz-adv-x="583" vert-adv-y="1000"  />

      
      <glyph glyph-name="uni70" unicode="&#x70;" d="M198 357L198 125Q243 96 295 96Q353 96 381 134.50Q409 173 409 241Q409 309 381 347.50Q353 386 295 386Q243 386 198 357M63 482L162 482L181 439L183 439Q260 497 337 497Q437 497 492 424.50Q547 352 547 241Q547 130 492 57.50Q437-15 337-15Q306-15 276.50-5Q247 5 236 11.50Q225 18 200 35L198 35L198-198L63-198L63 482Z"  horiz-adv-x="586" vert-adv-y="1000"  />

      
      <glyph glyph-name="uni71" unicode="&#x71;" d="M388 125L388 357Q343 386 291 386Q233 386 205 347.50Q177 309 177 241Q177 173 205 134.50Q233 96 291 96Q343 96 388 125M523 482L523-198L388-198L388 35L386 35Q361 18 350 11.50Q339 5 309.50-5Q280-15 249-15Q149-15 94 57.50Q39 130 39 241Q39 352 94 424.50Q149 497 249 497Q282 497 314.50 486Q347 475 361.50 466Q376 457 403 439L405 439L424 482L523 482Z"  horiz-adv-x="586" vert-adv-y="1000"  />

      
      <glyph glyph-name="uni72" unicode="&#x72;" d="M63 482L172 482L191 424L193 424Q210 453 241 475Q272 497 315 497Q339 497 363 491L351 378Q331 382 303 382Q236 382 198 335L198 0L63 0L63 482Z"  horiz-adv-x="378" vert-adv-y="1000"  />

      
      <glyph glyph-name="uni73" unicode="&#x73;" d="M32 31L72 128Q152 87 227 87Q303 87 303 134Q303 154 287.50 165Q272 176 237 185L174 200Q43 231 43 342Q43 414 96.50 455.50Q150 497 243 497Q338 497 423 462L386 366Q308 395 247 395Q174 395 174 351Q174 331 188.50 321Q203 311 236 302L297 287Q434 253 434 143Q434 69 379 27Q324-15 231-15Q122-15 32 31Z"  horiz-adv-x="468" vert-adv-y="1000"  />

      
      <glyph glyph-name="uni74" unicode="&#x74;" d="M109 594L244 594L244 482L382 482L382 379L244 379L244 151Q244 96 301 96Q333 96 379 110L379 0Q319-15 266-15Q186-15 147.50 19Q109 53 109 126L109 379L21 379L21 452L109 482L109 594Z"  horiz-adv-x="415" vert-adv-y="1000"  />

      
      <glyph glyph-name="uni75" unicode="&#x75;" d="M58 482L193 482L193 192Q193 144 212.50 120Q232 96 275 96Q323 96 377 137L377 482L512 482L512 0L403 0L385 47L383 47Q313-15 233-15Q149-15 103.50 37Q58 89 58 178L58 482Z"  horiz-adv-x="575" vert-adv-y="1000"  />

      
      <glyph glyph-name="uni76" unicode="&#x76;" d="M527 482L527 472L342 0L196 0L11 472L11 482L147 482L268 137L270 137L391 482L527 482Z"  horiz-adv-x="538" vert-adv-y="1000"  />

      
      <glyph glyph-name="uni77" unicode="&#x77;" d="M822 482L822 472L678 0L531 0L421 347L419 347L309 0L162 0L18 472L18 482L153 482L242 148L244 148L347 482L493 482L596 148L598 148L687 482L822 482Z"  horiz-adv-x="840" vert-adv-y="1000"  />

      
      <glyph glyph-name="uni78" unicode="&#x78;" d="M271 168L269 168L166 0L21 0L21 10L174 241L21 472L21 482L166 482L269 313L271 313L373 482L518 482L518 472L365 241L518 10L518 0L373 0L271 168Z"  horiz-adv-x="539" vert-adv-y="1000"  />

      
      <glyph glyph-name="uni79" unicode="&#x79;" d="M519 482L519 472L312-59Q251-213 119-213Q81-213 40-204L40-97Q69-102 102-102Q164-102 184-49L204 5L10 472L10 482L150 482L266 154L269 154L379 482L519 482Z"  horiz-adv-x="530" vert-adv-y="1000"  />

      
      <glyph glyph-name="uni7a" unicode="&#x7a;" d="M49 482L431 482L431 411L199 105L199 103L431 103L431 0L34 0L34 71L265 377L265 379L49 379L49 482Z"  horiz-adv-x="472" vert-adv-y="1000"  />

      
      <glyph glyph-name="uni7b" unicode="&#x7b;" d="M24 203L24 299Q64 299 88.50 319.50Q113 340 113 378L113 510Q113 606 153 653Q193 700 298 700L334 700L334 627Q228 627 228 519L228 381Q228 321 208 290.50Q188 260 142 252L142 250Q188 242 208 211.50Q228 181 228 121L228-17Q228-125 334-125L334-198L298-198Q193-198 153-151Q113-104 113-8L113 124Q113 162 88.50 182.50Q64 203 24 203Z"  horiz-adv-x="367" vert-adv-y="1000"  />

      
      <glyph glyph-name="uni7c" unicode="&#x7c;" d="M159 700L159-198L70-198L70 700L159 700Z"  horiz-adv-x="229" vert-adv-y="1000"  />

      
      <glyph glyph-name="uni7d" unicode="&#x7d;" d="M343 299L343 203Q303 203 278.50 182.50Q254 162 254 124L254-8Q254-104 214-151Q174-198 69-198L33-198L33-125Q139-125 139-17L139 121Q139 181 159 211.50Q179 242 225 250L225 252Q179 260 159 290.50Q139 321 139 381L139 519Q139 627 33 627L33 700L69 700Q174 700 214 653Q254 606 254 510L254 378Q254 340 278.50 319.50Q303 299 343 299Z"  horiz-adv-x="367" vert-adv-y="1000"  />

      
      <glyph glyph-name="uni7e" unicode="&#x7e;" d="M93 222L45 285Q91 350 175 350Q219 350 288 322.50Q357 295 393 295Q437 295 464 319L512 256Q465 192 383 192Q344 192 272.50 219.50Q201 247 164 247Q118 247 93 222Z"  horiz-adv-x="559" vert-adv-y="1000"  />

      
      <glyph glyph-name="unia1" unicode="&#xa1;" d="M61-47L89 242L178 242L206-47L206-198L61-198L61-47M196 473.50Q196 473.50 207.50 461.75Q219 450 219 411Q219 372 196 348.50Q173 325 134 325Q95 325 72 348.50Q49 372 49 411Q49 450 72 473.50Q95 497 134 497Q173 497 196 473.50Z"  horiz-adv-x="268" vert-adv-y="1000"  />

      
      <glyph glyph-name="unia2" unicode="&#xa2;" d="M395 578L395 493Q449 486 498 468L471 365Q429 379 395 384L395 98Q429 103 471 117L498 14Q449-4 395-11L395-96L306-96L306-12Q203 0 147.50 67Q92 134 92 241Q92 346 147.50 414Q203 482 306 494L306 578L395 578M230 241Q230 139 306 108L306 373Q230 342 230 241Z"  horiz-adv-x="590" vert-adv-y="1000"  />

      
      <glyph glyph-name="unia3" unicode="&#xa3;" d="M443 283L278 283Q282 258 282 227Q282 169 231 118L231 116L524 116L524 0L68 0L68 96Q137 134 137 202Q137 234 130 283L58 283L58 386L116 386Q111 433 111 479Q111 695 346 695Q444 695 539 650L502 540Q418 576 346 576Q256 576 256 479Q256 440 263 386L443 386L443 283Z"  horiz-adv-x="590" vert-adv-y="1000"  />

      
      <glyph glyph-name="unia4" unicode="&#xa4;" d="M484 270Q484 217 463 179L557 87L484 13L391 106Q354 85 297 85Q243 85 206 104L116 13L42 87L132 177Q111 215 111 270Q111 323 133 364L42 455L116 528L207 436Q244 455 297 455Q352 455 389 434L484 528L557 455L463 361Q484 322 484 270M243.50 336Q243.50 336 233.75 325Q224 314 224 270Q224 226 243.50 204Q263 182 297 182Q331 182 351 204Q371 226 371 270Q371 314 351 336Q331 358 297 358Q263 358 243.50 336Z"  horiz-adv-x="599" vert-adv-y="1000"  />

      
      <glyph glyph-name="unia5" unicode="&#xa5;" d="M550 124L366 124L366 0L227 0L227 124L40 124L40 227L227 227L227 293L40 293L40 396L168 396L12 670L12 680L164 680L295 420L297 420L428 680L580 680L580 670L424 396L550 396L550 293L366 293L366 227L550 227L550 124Z"  horiz-adv-x="590" vert-adv-y="1000"  />

      
      <glyph glyph-name="unia6" unicode="&#xa6;" d="M74 134L163 134L163-198L74-198L74 134M163 368L74 368L74 700L163 700L163 368Z"  horiz-adv-x="237" vert-adv-y="1000"  />

      
      <glyph glyph-name="unia7" unicode="&#xa7;" d="M342 298L225 342Q195 324 195 282Q195 232 249 212L364 168Q394 188 394 227Q394 278 342 298M449 136L449 134Q532 90 532 4Q532-84 465-132Q398-180 287-180Q167-180 47-126L90-7Q210-65 284-65Q390-65 390-13Q390 9 374.50 23.50Q359 38 312 55L196 98Q123 126 90 160.50Q57 195 57 255Q57 333 140 374L140 376Q57 420 57 512Q57 598 121 646.50Q185 695 300 695Q418 695 505 658L463 545Q379 580 299 580Q199 580 199 524Q199 503 214 488.50Q229 474 269 460L366 426Q456 394 494 356.50Q532 319 532 262Q532 182 449 136Z"  horiz-adv-x="579" vert-adv-y="1000"  />

      
      <glyph glyph-name="unia8" unicode="&#xa8;" d="M127.50 586.50Q127.50 586.50 116.75 596.75Q106 607 106 640Q106 673 127.50 693.50Q149 714 184 714Q220 714 241.50 693.50Q263 673 263 640Q263 607 241.50 586.50Q220 566 184 566Q149 566 127.50 586.50M347.50 586.50Q347.50 586.50 336.75 596.75Q326 607 326 640Q326 673 347.50 693.50Q369 714 404 714Q440 714 461.50 693.50Q483 673 483 640Q483 607 461.50 586.50Q440 566 404 566Q369 566 347.50 586.50Z"  horiz-adv-x="590" vert-adv-y="1000"  />

      
      <glyph glyph-name="unia9" unicode="&#xa9;" d="M148 87Q148 87 97 138Q46 189 46 340Q46 491 148 593Q250 695 401 695Q552 695 654 593Q756 491 756 340Q756 189 654 87Q552-15 401-15Q250-15 148 87M117 340Q117 218 201 135.50Q285 53 408 53Q529 53 607 135Q685 217 685 340Q685 463 604 545Q523 627 401 627Q279 627 198 545Q117 463 117 340M264.50 198Q264.50 198 239.25 224.50Q214 251 214 340Q214 429 264.50 482Q315 535 407 535Q466 535 520 511L496 439Q452 459 407 459Q364 459 336.50 426Q309 393 309 340Q309 287 336.50 254Q364 221 407 221Q452 221 496 241L520 169Q466 145 407 145Q315 145 264.50 198Z"  horiz-adv-x="802" vert-adv-y="1000"  />

      
      <glyph glyph-name="uniaa" unicode="&#xaa;" d="M259 478L213 478Q163 478 163 446Q163 415 197 415Q227 415 259 434L259 478M357 350L284 350L269 377L268 377Q225 341 172 341Q118 341 91.50 367.50Q65 394 65 437Q65 538 203 538L259 538L259 547Q259 566 247.50 575Q236 584 208 584Q157 584 102 564L82 639Q152 663 213 663Q282 663 319.50 628.50Q357 594 357 534L357 350M357 196L74 196L74 283L357 283L357 196Z"  horiz-adv-x="435" vert-adv-y="1000"  />

      
      <glyph glyph-name="uniab" unicode="&#xab;" d="M34 264L34 276L195 495L278 446L171 269L279 93L195 45L34 264M255 264L255 276L416 495L499 446L392 269L500 93L416 45L255 264Z"  horiz-adv-x="542" vert-adv-y="1000"  />

      
      <glyph glyph-name="uniac" unicode="&#xac;" d="M455 99L455 220L38 220L38 323L548 323L548 99L455 99Z"  horiz-adv-x="590" vert-adv-y="1000"  />

      
      <glyph glyph-name="uniad" unicode="&#xad;" d="M352 220L62 220L62 323L352 323L352 220Z"  horiz-adv-x="414" vert-adv-y="1000"  />

      
      <glyph glyph-name="uniae" unicode="&#xae;" d="M111.50 398.50Q111.50 398.50 78.75 431.25Q46 464 46 561Q46 658 111.50 724Q177 790 274 790Q371 790 436.50 724Q502 658 502 561Q502 464 436.50 398.50Q371 333 274 333Q177 333 111.50 398.50M101 561Q101 487 152 436Q203 385 279 385Q352 385 399.50 435.50Q447 486 447 561Q447 636 398 686.50Q349 737 274 737Q199 737 150 686.50Q101 636 101 561M239 455L184 455L184 673L283 673Q364 673 364 604Q364 553 315 539L375 460L375 455L312 455L259 535L239 535L239 455M239 579L280 579Q309 579 309 603Q309 627 280 627L239 627L239 579Z"  horiz-adv-x="548" vert-adv-y="1000"  />

      
      <glyph glyph-name="uniaf" unicode="&#xaf;" d="M440 579L150 579L150 682L440 682L440 579Z"  horiz-adv-x="590" vert-adv-y="1000"  />

      
      <glyph glyph-name="unib0" unicode="&#xb0;" d="M140 528Q140 491 162 470.50Q184 450 221 450Q258 450 279.50 470Q301 490 301 528Q301 563 279.50 584Q258 605 221 605Q185 605 162.50 584Q140 563 140 528M44 528Q44 605 92.50 650Q141 695 221 695Q301 695 349 650Q397 605 397 528Q397 450 348.50 404Q300 358 221 358Q141 358 92.50 404Q44 450 44 528Z"  horiz-adv-x="441" vert-adv-y="1000"  />

      
      <glyph glyph-name="unib1" unicode="&#xb1;" d="M348 626L348 433L550 433L550 330L348 330L348 186L241 186L241 330L40 330L40 433L241 433L241 626L348 626M40 103L550 103L550 0L40 0L40 103Z"  horiz-adv-x="590" vert-adv-y="1000"  />

      
      <glyph glyph-name="unib2" unicode="&#xb2;" d="M159 526L159 524L300 524L300 448L25 448L25 518L172 635Q198 656 198 685Q198 704 186 716.50Q174 729 154 729Q119 729 77 687L24 747Q78 808 159 808Q219 808 257 777.50Q295 747 295 691Q295 630 227 579L159 526Z"  horiz-adv-x="328" vert-adv-y="1000"  />

      
      <glyph glyph-name="unib3" unicode="&#xb3;" d="M78 585L78 662L147 662Q192 662 192 695Q192 729 142 729Q91 729 52 712L26 785Q85 808 145 808Q214 808 251 782Q288 756 288 708Q288 674 271.50 655Q255 636 232 633L232 632Q298 612 298 544Q298 440 140 440Q71 440 17 467L41 542Q85 520 139 520Q202 520 202 557Q202 574 190 579.50Q178 585 148 585L78 585Z"  horiz-adv-x="324" vert-adv-y="1000"  />

      
      <glyph glyph-name="unib4" unicode="&#xb4;" d="M405 713L405 704L302 567L184 567L184 577L263 713L405 713Z"  horiz-adv-x="590" vert-adv-y="1000"  />

      
      <glyph glyph-name="unib5" unicode="&#xb5;" d="M203-198L68-198L68 482L203 482L203 192Q203 144 222.50 120Q242 96 285 96Q333 96 387 137L387 482L522 482L522 0L413 0L395 47L393 47Q326-15 260-15Q226-15 203 1L203-198Z"  horiz-adv-x="577" vert-adv-y="1000"  />

      
      <glyph glyph-name="unib6" unicode="&#xb6;" d="M213-198L213 328Q133 328 80.50 374.50Q28 421 28 503Q28 585 81 632.50Q134 680 213 680L570 680L570 595L475 595L475-198L387-198L387 595L302 595L302-198L213-198Z"  horiz-adv-x="600" vert-adv-y="1000"  />

      
      <glyph glyph-name="unib7" unicode="&#xb7;" d="M77 228.50Q77 228.50 65.50 240.25Q54 252 54 291Q54 330 77 353.50Q100 377 139 377Q178 377 201 353.50Q224 330 224 291Q224 252 201 228.50Q178 205 139 205Q100 205 77 228.50Z"  horiz-adv-x="278" vert-adv-y="1000"  />

      
      <glyph glyph-name="unib8" unicode="&#xb8;" d="M232-94L228-88L265 7L345 7L322-45Q391-56 391-118Q391-163 360-188Q329-213 273-213Q231-213 198-201L212-138Q236-146 255-146Q290-146 290-121Q290-94 232-94Z"  horiz-adv-x="590" vert-adv-y="1000"  />

      
      <glyph glyph-name="unib9" unicode="&#xb9;" d="M25 658L16 658L16 742L146 800L216 800L216 448L124 448L124 702L122 702L25 658Z"  horiz-adv-x="261" vert-adv-y="1000"  />

      
      <glyph glyph-name="uniba" unicode="&#xba;" d="M219 580Q219 580 184.50 580Q150 580 150 502Q150 424 219 424Q288 424 288 502Q288 580 219 580M343 617Q343 617 365.50 594Q388 571 388 502Q388 433 343 387Q298 341 219 341Q141 341 95.50 387Q50 433 50 502Q50 571 95.50 617Q141 663 219 663Q298 663 343 617M360 196L77 196L77 283L360 283L360 196Z"  horiz-adv-x="439" vert-adv-y="1000"  />

      
      <glyph glyph-name="unibb" unicode="&#xbb;" d="M288 276L288 264L127 45L44 94L151 271L43 447L127 495L288 276M509 276L509 264L348 45L265 94L372 271L264 447L348 495L509 276Z"  horiz-adv-x="543" vert-adv-y="1000"  />

      
      <glyph glyph-name="unibc" unicode="&#xbc;" d="M196 0L92 0L92 10L548 680L652 680L652 670L196 0M590 244L681 244L681 151L723 151L723 75L681 75L681 0L590 0L590 75L418 75L418 143L508 352L601 352L520 152L520 151L590 151L590 244M39 538L30 538L30 622L160 680L230 680L230 328L138 328L138 582L136 582L39 538Z"  horiz-adv-x="755" vert-adv-y="1000"  />

      
      <glyph glyph-name="unibd" unicode="&#xbd;" d="M593 78L593 76L734 76L734 0L459 0L459 70L606 187Q632 208 632 237Q632 256 620 268.50Q608 281 588 281Q553 281 511 239L458 299Q512 360 593 360Q653 360 691 329.50Q729 299 729 243Q729 182 661 131L593 78M196 0L92 0L92 10L548 680L652 680L652 670L196 0M39 538L30 538L30 622L160 680L230 680L230 328L138 328L138 582L136 582L39 538Z"  horiz-adv-x="774" vert-adv-y="1000"  />

      
      <glyph glyph-name="unibe" unicode="&#xbe;" d="M238 0L134 0L134 10L590 680L694 680L694 670L238 0M632 244L723 244L723 151L765 151L765 75L723 75L723 0L632 0L632 75L460 75L460 143L550 352L643 352L562 152L562 151L632 151L632 244M94 462L94 539L163 539Q208 539 208 572Q208 606 158 606Q107 606 68 589L42 662Q101 685 161 685Q230 685 267 659Q304 633 304 585Q304 551 287.50 532Q271 513 248 510L248 509Q314 489 314 421Q314 317 156 317Q87 317 33 344L57 419Q101 397 155 397Q218 397 218 434Q218 451 206 456.50Q194 462 164 462L94 462Z"  horiz-adv-x="796" vert-adv-y="1000"  />

      
      <glyph glyph-name="unibf" unicode="&#xbf;" d="M212 242L321 242L327 113Q178 63 178-18Q178-50 201.50-72Q225-94 266-94Q335-94 406-23L477-116Q442-154 386.50-183.50Q331-213 266-213Q158-213 95.50-162.50Q33-112 33-25Q33 100 199 180L212 242M329 473.50Q329 473.50 340.50 461.75Q352 450 352 411Q352 372 329 348.50Q306 325 267 325Q228 325 205 348.50Q182 372 182 411Q182 450 205 473.50Q228 497 267 497Q306 497 329 473.50Z"  horiz-adv-x="501" vert-adv-y="1000"  />

      
      <glyph glyph-name="unic0" unicode="&#xc0;" d="M415 680L665 0L512 0L467 140L201 140L155 0L3 0L253 680L415 680M335 538L332 538L239 252L428 252L335 538M198 887L198 896L350 896L409 760L409 750L281 750L198 887Z"  horiz-adv-x="668" vert-adv-y="1000"  />

      
      <glyph glyph-name="unic1" unicode="&#xc1;" d="M415 680L665 0L512 0L467 140L201 140L155 0L3 0L253 680L415 680M335 538L332 538L239 252L428 252L335 538M471 896L471 887L388 750L260 750L260 760L319 896L471 896Z"  horiz-adv-x="668" vert-adv-y="1000"  />

      
      <glyph glyph-name="unic2" unicode="&#xc2;" d="M415 680L665 0L512 0L467 140L201 140L155 0L3 0L253 680L415 680M335 538L332 538L239 252L428 252L335 538M398 896L509 760L509 750L397 750L334 829L272 750L160 750L160 760L271 896L398 896Z"  horiz-adv-x="668" vert-adv-y="1000"  />

      
      <glyph glyph-name="unic3" unicode="&#xc3;" d="M415 680L665 0L512 0L467 140L201 140L155 0L3 0L253 680L415 680M335 538L332 538L239 252L428 252L335 538M187 761L160 831Q176 860 205 878.50Q234 897 266 897Q299 897 344.50 874.50Q390 852 415 852Q455 852 482 886L509 818Q492 787 463 769Q434 751 404 751Q373 751 324 773.50Q275 796 254 796Q216 796 187 761Z"  horiz-adv-x="668" vert-adv-y="1000"  />

      
      <glyph glyph-name="unic4" unicode="&#xc4;" d="M415 680L665 0L512 0L467 140L201 140L155 0L3 0L253 680L415 680M335 538L332 538L239 252L428 252L335 538M146.50 765.50Q146.50 765.50 135.75 775.75Q125 786 125 819Q125 852 146.50 872.50Q168 893 203 893Q239 893 260.50 872.50Q282 852 282 819Q282 786 260.50 765.50Q239 745 203 745Q168 745 146.50 765.50M407.50 765.50Q407.50 765.50 396.75 775.75Q386 786 386 819Q386 852 407.50 872.50Q429 893 464 893Q500 893 521.50 872.50Q543 852 543 819Q543 786 521.50 765.50Q500 745 464 745Q429 745 407.50 765.50Z"  horiz-adv-x="668" vert-adv-y="1000"  />

      
      <glyph glyph-name="unic5" unicode="&#xc5;" d="M211 751Q211 802 244.50 832.50Q278 863 333 863Q387 863 420.50 832.50Q454 802 454 751Q454 695 407 662L664 1L511 1L466 141L200 141L154 1L2 1L258 661Q211 694 211 751M334 539L331 539L238 253L427 253L334 539M302.50 779.50Q302.50 779.50 296.75 774.25Q291 769 291 751Q291 733 302.50 722.50Q314 712 333 712Q374 712 374 751Q374 769 363 779.50Q352 790 333 790Q314 790 302.50 779.50Z"  horiz-adv-x="666" vert-adv-y="1000"  />

      
      <glyph glyph-name="unic6" unicode="&#xc6;" d="M-19 0L-19 10L384 680L903 680L903 564L586 564L586 401L870 401L870 285L586 285L586 116L906 116L906 0L447 0L447 140L213 140L130 0L-19 0M447 544L444 544L277 252L447 252L447 544Z"  horiz-adv-x="958" vert-adv-y="1000"  />

      
      <glyph glyph-name="unic7" unicode="&#xc7;" d="M288-94L284-88L314-10Q186 8 116.50 101.50Q47 195 47 340Q47 502 133.50 598.50Q220 695 378 695Q475 695 571 651L534 541Q454 576 378 576Q289 576 240.50 512Q192 448 192 340Q192 232 240.50 168Q289 104 378 104Q454 104 534 139L571 29Q485-10 391-15L378-45Q447-56 447-118Q447-163 416-188Q385-213 329-213Q287-213 254-201L268-138Q292-146 311-146Q346-146 346-121Q346-94 288-94Z"  horiz-adv-x="606" vert-adv-y="1000"  />

      
      <glyph glyph-name="unic8" unicode="&#xc8;" d="M79 680L535 680L535 564L218 564L218 401L502 401L502 285L218 285L218 116L538 116L538 0L79 0L79 680M169 887L169 896L321 896L380 760L380 750L252 750L169 887Z"  horiz-adv-x="590" vert-adv-y="1000"  />

      
      <glyph glyph-name="unic9" unicode="&#xc9;" d="M79 680L535 680L535 564L218 564L218 401L502 401L502 285L218 285L218 116L538 116L538 0L79 0L79 680M457 896L457 887L374 750L246 750L246 760L305 896L457 896Z"  horiz-adv-x="590" vert-adv-y="1000"  />

      
      <glyph glyph-name="unica" unicode="&#xca;" d="M79 680L535 680L535 564L218 564L218 401L502 401L502 285L218 285L218 116L538 116L538 0L79 0L79 680M373 896L484 760L484 750L372 750L309 829L247 750L135 750L135 760L246 896L373 896Z"  horiz-adv-x="590" vert-adv-y="1000"  />

      
      <glyph glyph-name="unicb" unicode="&#xcb;" d="M79 680L535 680L535 564L218 564L218 401L502 401L502 285L218 285L218 116L538 116L538 0L79 0L79 680M117.50 765.50Q117.50 765.50 106.75 775.75Q96 786 96 819Q96 852 117.50 872.50Q139 893 174 893Q210 893 231.50 872.50Q253 852 253 819Q253 786 231.50 765.50Q210 745 174 745Q139 745 117.50 765.50M378.50 765.50Q378.50 765.50 367.75 775.75Q357 786 357 819Q357 852 378.50 872.50Q400 893 435 893Q471 893 492.50 872.50Q514 852 514 819Q514 786 492.50 765.50Q471 745 435 745Q400 745 378.50 765.50Z"  horiz-adv-x="590" vert-adv-y="1000"  />

      
      <glyph glyph-name="unicc" unicode="&#xcc;" d="M218 680L218 0L79 0L79 680L218 680M6 887L6 896L158 896L217 760L217 750L89 750L6 887Z"  horiz-adv-x="297" vert-adv-y="1000"  />

      
      <glyph glyph-name="unicd" unicode="&#xcd;" d="M218 680L218 0L79 0L79 680L218 680M295 896L295 887L212 750L84 750L84 760L143 896L295 896Z"  horiz-adv-x="297" vert-adv-y="1000"  />

      
      <glyph glyph-name="unice" unicode="&#xce;" d="M218 680L218 0L79 0L79 680L218 680M212 896L323 760L323 750L211 750L148 829L86 750L-26 750L-26 760L85 896L212 896Z"  horiz-adv-x="297" vert-adv-y="1000"  />

      
      <glyph glyph-name="unicf" unicode="&#xcf;" d="M218 680L218 0L79 0L79 680L218 680M-40.50 765.50Q-40.50 765.50-51.25 775.75Q-62 786-62 819Q-62 852-40.50 872.50Q-19 893 16 893Q52 893 73.50 872.50Q95 852 95 819Q95 786 73.50 765.50Q52 745 16 745Q-19 745-40.50 765.50M220.50 765.50Q220.50 765.50 209.75 775.75Q199 786 199 819Q199 852 220.50 872.50Q242 893 277 893Q313 893 334.50 872.50Q356 852 356 819Q356 786 334.50 765.50Q313 745 277 745Q242 745 220.50 765.50Z"  horiz-adv-x="297" vert-adv-y="1000"  />

      
      <glyph glyph-name="unid0" unicode="&#xd0;" d="M94 0L94 277L46 277L46 393L94 393L94 680L307 680Q493 680 574 595.50Q655 511 655 340Q655 169 574 84.50Q493 0 307 0L94 0M233 116L294 116Q421 116 465.50 167Q510 218 510 340Q510 462 465.50 513Q421 564 294 564L233 564L233 393L346 393L346 277L233 277L233 116Z"  horiz-adv-x="705" vert-adv-y="1000"  />

      
      <glyph glyph-name="unid1" unicode="&#xd1;" d="M515 211L518 211L518 680L657 680L657 0L510 0L221 469L218 469L218 0L79 0L79 680L226 680L515 211M216 761L189 831Q205 860 234 878.50Q263 897 295 897Q328 897 373.50 874.50Q419 852 444 852Q484 852 511 886L538 818Q521 787 492 769Q463 751 433 751Q402 751 353 773.50Q304 796 283 796Q245 796 216 761Z"  horiz-adv-x="736" vert-adv-y="1000"  />

      
      <glyph glyph-name="unid2" unicode="&#xd2;" d="M235.50 512Q235.50 512 213.75 480Q192 448 192 340Q192 232 235.50 168Q279 104 375 104Q470 104 513.50 168Q557 232 557 340Q557 448 513.50 512Q470 576 375 576Q279 576 235.50 512M619 596Q619 596 660.50 546.50Q702 497 702 340Q702 183 619 84Q536-15 375-15Q265-15 189.50 33.50Q114 82 80.50 160Q47 238 47 340Q47 442 80.50 520Q114 598 189.50 646.50Q265 695 375 695Q536 695 619 596M248 887L248 896L400 896L459 760L459 750L331 750L248 887Z"  horiz-adv-x="749" vert-adv-y="1000"  />

      
      <glyph glyph-name="unid3" unicode="&#xd3;" d="M235.50 512Q235.50 512 213.75 480Q192 448 192 340Q192 232 235.50 168Q279 104 375 104Q470 104 513.50 168Q557 232 557 340Q557 448 513.50 512Q470 576 375 576Q279 576 235.50 512M619 596Q619 596 660.50 546.50Q702 497 702 340Q702 183 619 84Q536-15 375-15Q265-15 189.50 33.50Q114 82 80.50 160Q47 238 47 340Q47 442 80.50 520Q114 598 189.50 646.50Q265 695 375 695Q536 695 619 596M519 896L519 887L436 750L308 750L308 760L367 896L519 896Z"  horiz-adv-x="749" vert-adv-y="1000"  />

      
      <glyph glyph-name="unid4" unicode="&#xd4;" d="M235.50 512Q235.50 512 213.75 480Q192 448 192 340Q192 232 235.50 168Q279 104 375 104Q470 104 513.50 168Q557 232 557 340Q557 448 513.50 512Q470 576 375 576Q279 576 235.50 512M619 596Q619 596 660.50 546.50Q702 497 702 340Q702 183 619 84Q536-15 375-15Q265-15 189.50 33.50Q114 82 80.50 160Q47 238 47 340Q47 442 80.50 520Q114 598 189.50 646.50Q265 695 375 695Q536 695 619 596M445 896L556 760L556 750L444 750L381 829L319 750L207 750L207 760L318 896L445 896Z"  horiz-adv-x="749" vert-adv-y="1000"  />

      
      <glyph glyph-name="unid5" unicode="&#xd5;" d="M235.50 512Q235.50 512 213.75 480Q192 448 192 340Q192 232 235.50 168Q279 104 375 104Q470 104 513.50 168Q557 232 557 340Q557 448 513.50 512Q470 576 375 576Q279 576 235.50 512M619 596Q619 596 660.50 546.50Q702 497 702 340Q702 183 619 84Q536-15 375-15Q265-15 189.50 33.50Q114 82 80.50 160Q47 238 47 340Q47 442 80.50 520Q114 598 189.50 646.50Q265 695 375 695Q536 695 619 596M230 761L203 831Q219 860 248 878.50Q277 897 309 897Q342 897 387.50 874.50Q433 852 458 852Q498 852 525 886L552 818Q535 787 506 769Q477 751 447 751Q416 751 367 773.50Q318 796 297 796Q259 796 230 761Z"  horiz-adv-x="749" vert-adv-y="1000"  />

      
      <glyph glyph-name="unid6" unicode="&#xd6;" d="M235.50 512Q235.50 512 213.75 480Q192 448 192 340Q192 232 235.50 168Q279 104 375 104Q470 104 513.50 168Q557 232 557 340Q557 448 513.50 512Q470 576 375 576Q279 576 235.50 512M619 596Q619 596 660.50 546.50Q702 497 702 340Q702 183 619 84Q536-15 375-15Q265-15 189.50 33.50Q114 82 80.50 160Q47 238 47 340Q47 442 80.50 520Q114 598 189.50 646.50Q265 695 375 695Q536 695 619 596M189.50 765.50Q189.50 765.50 178.75 775.75Q168 786 168 819Q168 852 189.50 872.50Q211 893 246 893Q282 893 303.50 872.50Q325 852 325 819Q325 786 303.50 765.50Q282 745 246 745Q211 745 189.50 765.50M450.50 765.50Q450.50 765.50 439.75 775.75Q429 786 429 819Q429 852 450.50 872.50Q472 893 507 893Q543 893 564.50 872.50Q586 852 586 819Q586 786 564.50 765.50Q543 745 507 745Q472 745 450.50 765.50Z"  horiz-adv-x="749" vert-adv-y="1000"  />

      
      <glyph glyph-name="unid7" unicode="&#xd7;" d="M130 509L294 344L460 509L533 436L367 271L533 106L460 33L294 198L130 33L57 106L221 271L57 436L130 509Z"  horiz-adv-x="590" vert-adv-y="1000"  />

      
      <glyph glyph-name="unid8" unicode="&#xd8;" d="M173-32L95 19L135 78Q47 172 47 340Q47 442 80.50 520Q114 598 189.50 646.50Q265 695 375 695Q464 695 533 662L568 715L645 663L607 608Q702 512 702 340Q702 183 619 84Q536-15 375-15Q280-15 208 22L173-32M557 340Q557 431 526 490L279 127Q320 104 375 104Q470 104 513.50 168Q557 232 557 340M192 340Q192 250 217 199L461 557Q425 576 375 576Q279 576 235.50 512Q192 448 192 340Z"  horiz-adv-x="749" vert-adv-y="1000"  />

      
      <glyph glyph-name="unid9" unicode="&#xd9;" d="M71 680L210 680L210 279Q210 104 353 104Q427 104 461.50 151.50Q496 199 496 279L496 680L635 680L635 279Q635-15 353-15Q71-15 71 279L71 680M215 887L215 896L367 896L426 760L426 750L298 750L215 887Z"  horiz-adv-x="706" vert-adv-y="1000"  />

      
      <glyph glyph-name="unida" unicode="&#xda;" d="M71 680L210 680L210 279Q210 104 353 104Q427 104 461.50 151.50Q496 199 496 279L496 680L635 680L635 279Q635-15 353-15Q71-15 71 279L71 680M499 896L499 887L416 750L288 750L288 760L347 896L499 896Z"  horiz-adv-x="706" vert-adv-y="1000"  />

      
      <glyph glyph-name="unidb" unicode="&#xdb;" d="M71 680L210 680L210 279Q210 104 353 104Q427 104 461.50 151.50Q496 199 496 279L496 680L635 680L635 279Q635-15 353-15Q71-15 71 279L71 680M416 896L527 760L527 750L415 750L352 829L290 750L178 750L178 760L289 896L416 896Z"  horiz-adv-x="706" vert-adv-y="1000"  />

      
      <glyph glyph-name="unidc" unicode="&#xdc;" d="M71 680L210 680L210 279Q210 104 353 104Q427 104 461.50 151.50Q496 199 496 279L496 680L635 680L635 279Q635-15 353-15Q71-15 71 279L71 680M164.50 765.50Q164.50 765.50 153.75 775.75Q143 786 143 819Q143 852 164.50 872.50Q186 893 221 893Q257 893 278.50 872.50Q300 852 300 819Q300 786 278.50 765.50Q257 745 221 745Q186 745 164.50 765.50M425.50 765.50Q425.50 765.50 414.75 775.75Q404 786 404 819Q404 852 425.50 872.50Q447 893 482 893Q518 893 539.50 872.50Q561 852 561 819Q561 786 539.50 765.50Q518 745 482 745Q447 745 425.50 765.50Z"  horiz-adv-x="706" vert-adv-y="1000"  />

      
      <glyph glyph-name="unidd" unicode="&#xdd;" d="M-3 680L149 680L300 400L302 400L453 680L605 680L605 670L371 274L371 0L232 0L232 274L-3 670L-3 680M444 896L444 887L361 750L233 750L233 760L292 896L444 896Z"  horiz-adv-x="604" vert-adv-y="1000"  />

      
      <glyph glyph-name="unide" unicode="&#xde;" d="M218 0L79 0L79 680L218 680L218 574L338 574Q456 574 511.50 513.50Q567 453 567 349Q567 245 511 184Q455 123 338 123L218 123L218 0M218 458L218 239L328 239Q422 239 422 349Q422 458 328 458L218 458Z"  horiz-adv-x="603" vert-adv-y="1000"  />

      
      <glyph glyph-name="unidf" unicode="&#xdf;" d="M63 0L63 457Q63 578 130.50 641.50Q198 705 314 705Q414 705 476.50 654.50Q539 604 539 513Q539 410 460 375L460 373Q517 353 554 308.50Q591 264 591 195Q591-15 329-15Q290-15 274-11L274 99Q291 96 329 96Q393 96 423 122.50Q453 149 453 205Q453 308 320 308L293 308L293 411L319 411Q358 411 379.50 435Q401 459 401 504Q401 546 375 570Q349 594 301 594Q198 594 198 460L198 0L63 0Z"  horiz-adv-x="628" vert-adv-y="1000"  />

      
      <glyph glyph-name="unie0" unicode="&#xe0;" d="M467 302L467 105Q467 93 469.50 90Q472 87 483 87L518 87L518-5Q481-12 448-12Q378-12 352 45L350 45Q323 22 279.50 3.50Q236-15 195-15Q116-15 74 27Q32 69 32 137Q32 218 88 256.50Q144 295 270 295L335 295L335 317Q335 357 309.50 371.50Q284 386 253 386Q171 386 93 351L61 454Q156 497 260 497Q363 497 415 446.50Q467 396 467 302M335 208L284 208Q161 208 161 149Q161 91 225 91Q289 91 335 124L335 208M138 704L138 713L280 713L359 577L359 567L241 567L138 704Z"  horiz-adv-x="543" vert-adv-y="1000"  />

      
      <glyph glyph-name="unie1" unicode="&#xe1;" d="M467 302L467 105Q467 93 469.50 90Q472 87 483 87L518 87L518-5Q481-12 448-12Q378-12 352 45L350 45Q323 22 279.50 3.50Q236-15 195-15Q116-15 74 27Q32 69 32 137Q32 218 88 256.50Q144 295 270 295L335 295L335 317Q335 357 309.50 371.50Q284 386 253 386Q171 386 93 351L61 454Q156 497 260 497Q363 497 415 446.50Q467 396 467 302M335 208L284 208Q161 208 161 149Q161 91 225 91Q289 91 335 124L335 208M434 713L434 704L331 567L213 567L213 577L292 713L434 713Z"  horiz-adv-x="543" vert-adv-y="1000"  />

      
      <glyph glyph-name="unie2" unicode="&#xe2;" d="M467 302L467 105Q467 93 469.50 90Q472 87 483 87L518 87L518-5Q481-12 448-12Q378-12 352 45L350 45Q323 22 279.50 3.50Q236-15 195-15Q116-15 74 27Q32 69 32 137Q32 218 88 256.50Q144 295 270 295L335 295L335 317Q335 357 309.50 371.50Q284 386 253 386Q171 386 93 351L61 454Q156 497 260 497Q363 497 415 446.50Q467 396 467 302M335 208L284 208Q161 208 161 149Q161 91 225 91Q289 91 335 124L335 208M363 713L454 577L454 567L342 567L289 636L237 567L125 567L125 577L216 713L363 713Z"  horiz-adv-x="543" vert-adv-y="1000"  />

      
      <glyph glyph-name="unie3" unicode="&#xe3;" d="M467 302L467 105Q467 93 469.50 90Q472 87 483 87L518 87L518-5Q481-12 448-12Q378-12 352 45L350 45Q323 22 279.50 3.50Q236-15 195-15Q116-15 74 27Q32 69 32 137Q32 218 88 256.50Q144 295 270 295L335 295L335 317Q335 357 309.50 371.50Q284 386 253 386Q171 386 93 351L61 454Q156 497 260 497Q363 497 415 446.50Q467 396 467 302M335 208L284 208Q161 208 161 149Q161 91 225 91Q289 91 335 124L335 208M141 577L114 647Q130 676 159 694.50Q188 713 220 713Q253 713 298.50 690.50Q344 668 369 668Q409 668 436 702L463 634Q446 603 417 585Q388 567 358 567Q327 567 278 589.50Q229 612 208 612Q170 612 141 577Z"  horiz-adv-x="543" vert-adv-y="1000"  />

      
      <glyph glyph-name="unie4" unicode="&#xe4;" d="M467 302L467 105Q467 93 469.50 90Q472 87 483 87L518 87L518-5Q481-12 448-12Q378-12 352 45L350 45Q323 22 279.50 3.50Q236-15 195-15Q116-15 74 27Q32 69 32 137Q32 218 88 256.50Q144 295 270 295L335 295L335 317Q335 357 309.50 371.50Q284 386 253 386Q171 386 93 351L61 454Q156 497 260 497Q363 497 415 446.50Q467 396 467 302M335 208L284 208Q161 208 161 149Q161 91 225 91Q289 91 335 124L335 208M121.50 586.50Q121.50 586.50 110.75 596.75Q100 607 100 640Q100 673 121.50 693.50Q143 714 178 714Q214 714 235.50 693.50Q257 673 257 640Q257 607 235.50 586.50Q214 566 178 566Q143 566 121.50 586.50M341.50 586.50Q341.50 586.50 330.75 596.75Q320 607 320 640Q320 673 341.50 693.50Q363 714 398 714Q434 714 455.50 693.50Q477 673 477 640Q477 607 455.50 586.50Q434 566 398 566Q363 566 341.50 586.50Z"  horiz-adv-x="543" vert-adv-y="1000"  />

      
      <glyph glyph-name="unie5" unicode="&#xe5;" d="M467 302L467 105Q467 93 469.50 90Q472 87 483 87L518 87L518-5Q481-12 448-12Q378-12 352 45L350 45Q323 22 279.50 3.50Q236-15 195-15Q116-15 74 27Q32 69 32 137Q32 218 88 256.50Q144 295 270 295L335 295L335 317Q335 357 309.50 371.50Q284 386 253 386Q171 386 93 351L61 454Q156 497 260 497Q363 497 415 446.50Q467 396 467 302M335 208L284 208Q161 208 161 149Q161 91 225 91Q289 91 335 124L335 208M259.50 671.50Q259.50 671.50 253.75 666.25Q248 661 248 643Q248 625 259.50 614.50Q271 604 290 604Q331 604 331 643Q331 661 320 671.50Q309 682 290 682Q271 682 259.50 671.50M168 643Q168 694 201.50 724.50Q235 755 290 755Q344 755 377.50 724.50Q411 694 411 643Q411 590 378 560Q345 530 290 530Q235 530 201.50 560.50Q168 591 168 643Z"  horiz-adv-x="543" vert-adv-y="1000"  />

      
      <glyph glyph-name="unie6" unicode="&#xe6;" d="M788 202L474 202Q485 93 592 93Q658 93 741 123L772 26Q686-15 582-15Q468-15 399 71Q362 31 317.50 8Q273-15 201-15Q122-15 77 27Q32 69 32 137Q32 293 248 293L338 293L338 317Q338 337 330.50 351Q323 365 314.50 371.50Q306 378 290.50 381.50Q275 385 267.50 385.50Q260 386 246 386Q171 386 93 351L61 454Q156 497 253 497Q359 497 416 432Q479 497 575 497Q686 497 740.50 438.50Q795 380 795 289Q795 242 788 202M472 286L671 286Q672 291 672 301Q672 399 574 399Q526 399 500 366.50Q474 334 472 286M340 206L252 206Q158 206 158 146Q158 89 221 89Q268 89 304 122Q340 155 340 206Z"  horiz-adv-x="831" vert-adv-y="1000"  />

      
      <glyph glyph-name="unie7" unicode="&#xe7;" d="M208-94L204-88L234-9Q141 7 89.50 74Q38 141 38 241Q38 357 105.50 427Q173 497 294 497Q367 497 444 468L417 365Q352 386 316 386Q256 386 216 350.50Q176 315 176 241Q176 167 216 131.50Q256 96 316 96Q352 96 417 117L444 14Q381-10 311-14L298-45Q367-56 367-118Q367-163 336-188Q305-213 249-213Q207-213 174-201L188-138Q212-146 231-146Q266-146 266-121Q266-94 208-94Z"  horiz-adv-x="479" vert-adv-y="1000"  />

      
      <glyph glyph-name="unie8" unicode="&#xe8;" d="M496 202L174 202Q178 151 209.50 122Q241 93 295 93Q366 93 449 123L480 26Q394-15 285-15Q165-15 101 57.50Q37 130 37 242Q37 350 101 423.50Q165 497 278 497Q389 497 446 438.50Q503 380 503 289Q503 242 496 202M174 286L379 286Q380 291 380 301Q380 399 279 399Q231 399 203.50 366Q176 333 174 286M139 704L139 713L281 713L360 577L360 567L242 567L139 704Z"  horiz-adv-x="539" vert-adv-y="1000"  />

      
      <glyph glyph-name="unie9" unicode="&#xe9;" d="M496 202L174 202Q178 151 209.50 122Q241 93 295 93Q366 93 449 123L480 26Q394-15 285-15Q165-15 101 57.50Q37 130 37 242Q37 350 101 423.50Q165 497 278 497Q389 497 446 438.50Q503 380 503 289Q503 242 496 202M174 286L379 286Q380 291 380 301Q380 399 279 399Q231 399 203.50 366Q176 333 174 286M443 713L443 704L340 567L222 567L222 577L301 713L443 713Z"  horiz-adv-x="539" vert-adv-y="1000"  />

      
      <glyph glyph-name="uniea" unicode="&#xea;" d="M496 202L174 202Q178 151 209.50 122Q241 93 295 93Q366 93 449 123L480 26Q394-15 285-15Q165-15 101 57.50Q37 130 37 242Q37 350 101 423.50Q165 497 278 497Q389 497 446 438.50Q503 380 503 289Q503 242 496 202M174 286L379 286Q380 291 380 301Q380 399 279 399Q231 399 203.50 366Q176 333 174 286M357 713L448 577L448 567L336 567L283 636L231 567L119 567L119 577L210 713L357 713Z"  horiz-adv-x="539" vert-adv-y="1000"  />

      
      <glyph glyph-name="unieb" unicode="&#xeb;" d="M496 202L174 202Q178 151 209.50 122Q241 93 295 93Q366 93 449 123L480 26Q394-15 285-15Q165-15 101 57.50Q37 130 37 242Q37 350 101 423.50Q165 497 278 497Q389 497 446 438.50Q503 380 503 289Q503 242 496 202M174 286L379 286Q380 291 380 301Q380 399 279 399Q231 399 203.50 366Q176 333 174 286M116.50 586.50Q116.50 586.50 105.75 596.75Q95 607 95 640Q95 673 116.50 693.50Q138 714 173 714Q209 714 230.50 693.50Q252 673 252 640Q252 607 230.50 586.50Q209 566 173 566Q138 566 116.50 586.50M336.50 586.50Q336.50 586.50 325.75 596.75Q315 607 315 640Q315 673 336.50 693.50Q358 714 393 714Q429 714 450.50 693.50Q472 673 472 640Q472 607 450.50 586.50Q429 566 393 566Q358 566 336.50 586.50Z"  horiz-adv-x="539" vert-adv-y="1000"  />

      
      <glyph glyph-name="uniec" unicode="&#xec;" d="M198 0L63 0L63 482L198 482L198 0M-26 704L-26 713L116 713L195 577L195 567L77 567L-26 704Z"  horiz-adv-x="261" vert-adv-y="1000"  />

      
      <glyph glyph-name="unied" unicode="&#xed;" d="M198 0L63 0L63 482L198 482L198 0M288 713L288 704L185 567L67 567L67 577L146 713L288 713Z"  horiz-adv-x="261" vert-adv-y="1000"  />

      
      <glyph glyph-name="uniee" unicode="&#xee;" d="M198 0L63 0L63 482L198 482L198 0M204 713L295 577L295 567L183 567L130 636L78 567L-34 567L-34 577L57 713L204 713Z"  horiz-adv-x="261" vert-adv-y="1000"  />

      
      <glyph glyph-name="unief" unicode="&#xef;" d="M198 0L63 0L63 482L198 482L198 0M-36.50 586.50Q-36.50 586.50-47.25 596.75Q-58 607-58 640Q-58 673-36.50 693.50Q-15 714 20 714Q56 714 77.50 693.50Q99 673 99 640Q99 607 77.50 586.50Q56 566 20 566Q-15 566-36.50 586.50M183.50 586.50Q183.50 586.50 172.75 596.75Q162 607 162 640Q162 673 183.50 693.50Q205 714 240 714Q276 714 297.50 693.50Q319 673 319 640Q319 607 297.50 586.50Q276 566 240 566Q205 566 183.50 586.50Z"  horiz-adv-x="261" vert-adv-y="1000"  />

      
      <glyph glyph-name="unif0" unicode="&#xf0;" d="M471 604L409 587Q469 511 511.50 420Q554 329 554 251Q554 131 487 58Q420-15 295-15Q173-15 105.50 55.50Q38 126 38 236Q38 345 99 413Q160 481 259 481Q325 481 374 447L375 449Q342 512 303 554L187 522L166 594L249 617Q191 680 180 690L180 700L313 700L353 653L452 676L471 604M175 236Q175 170 205.50 133.50Q236 97 295 97Q417 97 417 236Q417 369 295 369Q175 369 175 236Z"  horiz-adv-x="593" vert-adv-y="1000"  />

      
      <glyph glyph-name="unif1" unicode="&#xf1;" d="M63 482L171 482L189 435L191 435Q260 497 345 497Q429 497 476 444.50Q523 392 523 304L523 0L388 0L388 290Q388 386 302 386Q252 386 198 345L198 0L63 0L63 482M145 577L118 647Q134 676 163 694.50Q192 713 224 713Q257 713 302.50 690.50Q348 668 373 668Q413 668 440 702L467 634Q450 603 421 585Q392 567 362 567Q331 567 282 589.50Q233 612 212 612Q174 612 145 577Z"  horiz-adv-x="581" vert-adv-y="1000"  />

      
      <glyph glyph-name="unif2" unicode="&#xf2;" d="M206.50 349Q206.50 349 190.75 330.50Q175 312 175 241Q175 170 206.50 133Q238 96 291 96Q346 96 377 133Q408 170 408 241Q408 312 377 349Q346 386 291 386Q238 386 206.50 349M479 424Q479 424 512.50 387.50Q546 351 546 241Q546 131 479 58Q412-15 291-15Q172-15 104.50 58Q37 131 37 241Q37 351 104.50 424Q172 497 291 497Q412 497 479 424M133 704L133 713L275 713L354 577L354 567L236 567L133 704Z"  horiz-adv-x="583" vert-adv-y="1000"  />

      
      <glyph glyph-name="unif3" unicode="&#xf3;" d="M206.50 349Q206.50 349 190.75 330.50Q175 312 175 241Q175 170 206.50 133Q238 96 291 96Q346 96 377 133Q408 170 408 241Q408 312 377 349Q346 386 291 386Q238 386 206.50 349M479 424Q479 424 512.50 387.50Q546 351 546 241Q546 131 479 58Q412-15 291-15Q172-15 104.50 58Q37 131 37 241Q37 351 104.50 424Q172 497 291 497Q412 497 479 424M452 713L452 704L349 567L231 567L231 577L310 713L452 713Z"  horiz-adv-x="583" vert-adv-y="1000"  />

      
      <glyph glyph-name="unif4" unicode="&#xf4;" d="M206.50 349Q206.50 349 190.75 330.50Q175 312 175 241Q175 170 206.50 133Q238 96 291 96Q346 96 377 133Q408 170 408 241Q408 312 377 349Q346 386 291 386Q238 386 206.50 349M479 424Q479 424 512.50 387.50Q546 351 546 241Q546 131 479 58Q412-15 291-15Q172-15 104.50 58Q37 131 37 241Q37 351 104.50 424Q172 497 291 497Q412 497 479 424M364 713L455 577L455 567L343 567L290 636L238 567L126 567L126 577L217 713L364 713Z"  horiz-adv-x="583" vert-adv-y="1000"  />

      
      <glyph glyph-name="unif5" unicode="&#xf5;" d="M206.50 349Q206.50 349 190.75 330.50Q175 312 175 241Q175 170 206.50 133Q238 96 291 96Q346 96 377 133Q408 170 408 241Q408 312 377 349Q346 386 291 386Q238 386 206.50 349M479 424Q479 424 512.50 387.50Q546 351 546 241Q546 131 479 58Q412-15 291-15Q172-15 104.50 58Q37 131 37 241Q37 351 104.50 424Q172 497 291 497Q412 497 479 424M143 577L116 647Q132 676 161 694.50Q190 713 222 713Q255 713 300.50 690.50Q346 668 371 668Q411 668 438 702L465 634Q448 603 419 585Q390 567 360 567Q329 567 280 589.50Q231 612 210 612Q172 612 143 577Z"  horiz-adv-x="583" vert-adv-y="1000"  />

      
      <glyph glyph-name="unif6" unicode="&#xf6;" d="M206.50 349Q206.50 349 190.75 330.50Q175 312 175 241Q175 170 206.50 133Q238 96 291 96Q346 96 377 133Q408 170 408 241Q408 312 377 349Q346 386 291 386Q238 386 206.50 349M479 424Q479 424 512.50 387.50Q546 351 546 241Q546 131 479 58Q412-15 291-15Q172-15 104.50 58Q37 131 37 241Q37 351 104.50 424Q172 497 291 497Q412 497 479 424M124.50 586.50Q124.50 586.50 113.75 596.75Q103 607 103 640Q103 673 124.50 693.50Q146 714 181 714Q217 714 238.50 693.50Q260 673 260 640Q260 607 238.50 586.50Q217 566 181 566Q146 566 124.50 586.50M344.50 586.50Q344.50 586.50 333.75 596.75Q323 607 323 640Q323 673 344.50 693.50Q366 714 401 714Q437 714 458.50 693.50Q480 673 480 640Q480 607 458.50 586.50Q437 566 401 566Q366 566 344.50 586.50Z"  horiz-adv-x="583" vert-adv-y="1000"  />

      
      <glyph glyph-name="unif7" unicode="&#xf7;" d="M40 323L550 323L550 220L40 220L40 323M233 8.50Q233 8.50 221.50 20.25Q210 32 210 71Q210 110 233 133.50Q256 157 295 157Q334 157 357 133.50Q380 110 380 71Q380 32 357 8.50Q334-15 295-15Q256-15 233 8.50M233 414.50Q233 414.50 221.50 426.25Q210 438 210 477Q210 516 233 539.50Q256 563 295 563Q334 563 357 539.50Q380 516 380 477Q380 438 357 414.50Q334 391 295 391Q256 391 233 414.50Z"  horiz-adv-x="590" vert-adv-y="1000"  />

      
      <glyph glyph-name="unif8" unicode="&#xf8;" d="M125-34L58 23L94 68Q37 137 37 241Q37 351 104.50 424Q172 497 291 497Q366 497 418 469L453 513L522 459L487 415Q546 344 546 241Q546 131 479 58Q412-15 291-15Q217-15 162 14L125-34M415 246Q415 289 405 316L229 99Q256 88 287 88Q347 88 381 128Q415 168 415 246M168 236Q168 192 177 168L351 383Q326 394 295 394Q236 394 202 354Q168 314 168 236Z"  horiz-adv-x="583" vert-adv-y="1000"  />

      
      <glyph glyph-name="unif9" unicode="&#xf9;" d="M58 482L193 482L193 192Q193 144 212.50 120Q232 96 275 96Q323 96 377 137L377 482L512 482L512 0L403 0L385 47L383 47Q313-15 233-15Q149-15 103.50 37Q58 89 58 178L58 482M127 704L127 713L269 713L348 577L348 567L230 567L127 704Z"  horiz-adv-x="575" vert-adv-y="1000"  />

      
      <glyph glyph-name="unifa" unicode="&#xfa;" d="M58 482L193 482L193 192Q193 144 212.50 120Q232 96 275 96Q323 96 377 137L377 482L512 482L512 0L403 0L385 47L383 47Q313-15 233-15Q149-15 103.50 37Q58 89 58 178L58 482M450 713L450 704L347 567L229 567L229 577L308 713L450 713Z"  horiz-adv-x="575" vert-adv-y="1000"  />

      
      <glyph glyph-name="unifb" unicode="&#xfb;" d="M58 482L193 482L193 192Q193 144 212.50 120Q232 96 275 96Q323 96 377 137L377 482L512 482L512 0L403 0L385 47L383 47Q313-15 233-15Q149-15 103.50 37Q58 89 58 178L58 482M359 713L450 577L450 567L338 567L285 636L233 567L121 567L121 577L212 713L359 713Z"  horiz-adv-x="575" vert-adv-y="1000"  />

      
      <glyph glyph-name="unifc" unicode="&#xfc;" d="M58 482L193 482L193 192Q193 144 212.50 120Q232 96 275 96Q323 96 377 137L377 482L512 482L512 0L403 0L385 47L383 47Q313-15 233-15Q149-15 103.50 37Q58 89 58 178L58 482M122.50 586.50Q122.50 586.50 111.75 596.75Q101 607 101 640Q101 673 122.50 693.50Q144 714 179 714Q215 714 236.50 693.50Q258 673 258 640Q258 607 236.50 586.50Q215 566 179 566Q144 566 122.50 586.50M342.50 586.50Q342.50 586.50 331.75 596.75Q321 607 321 640Q321 673 342.50 693.50Q364 714 399 714Q435 714 456.50 693.50Q478 673 478 640Q478 607 456.50 586.50Q435 566 399 566Q364 566 342.50 586.50Z"  horiz-adv-x="575" vert-adv-y="1000"  />

      
      <glyph glyph-name="unifd" unicode="&#xfd;" d="M519 482L519 472L312-59Q251-213 119-213Q81-213 40-204L40-97Q69-102 102-102Q164-102 184-49L204 5L10 472L10 482L150 482L266 154L269 154L379 482L519 482M426 713L426 704L323 567L205 567L205 577L284 713L426 713Z"  horiz-adv-x="530" vert-adv-y="1000"  />

      
      <glyph glyph-name="unife" unicode="&#xfe;" d="M198 357L198 125Q243 96 295 96Q352 96 381 135Q410 174 410 241Q410 308 381.50 347Q353 386 295 386Q247 386 198 357M63-198L63 700L198 700L198 447L200 447Q269 497 337 497Q438 497 492.50 424.50Q547 352 547 241Q547 130 492 57.50Q437-15 337-15Q306-15 276.50-5Q247 5 236 11.50Q225 18 200 35L198 35L198-198L63-198Z"  horiz-adv-x="586" vert-adv-y="1000"  />

      
      <glyph glyph-name="uniff" unicode="&#xff;" d="M519 482L519 472L312-59Q251-213 119-213Q81-213 40-204L40-97Q69-102 102-102Q164-102 184-49L204 5L10 472L10 482L150 482L266 154L269 154L379 482L519 482M100.50 586.50Q100.50 586.50 89.75 596.75Q79 607 79 640Q79 673 100.50 693.50Q122 714 157 714Q193 714 214.50 693.50Q236 673 236 640Q236 607 214.50 586.50Q193 566 157 566Q122 566 100.50 586.50M320.50 586.50Q320.50 586.50 309.75 596.75Q299 607 299 640Q299 673 320.50 693.50Q342 714 377 714Q413 714 434.50 693.50Q456 673 456 640Q456 607 434.50 586.50Q413 566 377 566Q342 566 320.50 586.50Z"  horiz-adv-x="530" vert-adv-y="1000"  />

      
      <glyph glyph-name="uni0100" unicode="&#x0100;" d="M415 680L665 0L512 0L467 140L201 140L155 0L3 0L253 680L415 680M335 538L332 538L239 252L428 252L335 538M479 759L189 759L189 862L479 862L479 759Z"  horiz-adv-x="668" vert-adv-y="1000"  />

      
      <glyph glyph-name="uni0101" unicode="&#x0101;" d="M467 302L467 105Q467 93 469.50 90Q472 87 483 87L518 87L518-5Q481-12 448-12Q378-12 352 45L350 45Q323 22 279.50 3.50Q236-15 195-15Q116-15 74 27Q32 69 32 137Q32 218 88 256.50Q144 295 270 295L335 295L335 317Q335 357 309.50 371.50Q284 386 253 386Q171 386 93 351L61 454Q156 497 260 497Q363 497 415 446.50Q467 396 467 302M335 208L284 208Q161 208 161 149Q161 91 225 91Q289 91 335 124L335 208M433 579L143 579L143 682L433 682L433 579Z"  horiz-adv-x="543" vert-adv-y="1000"  />

      
      <glyph glyph-name="uni0102" unicode="&#x0102;" d="M415 680L665 0L512 0L467 140L201 140L155 0L3 0L253 680L415 680M335 538L332 538L239 252L428 252L335 538M333 858Q422 858 466 892L508 828Q455 751 333 751Q213 751 160 828L202 892Q250 858 333 858Z"  horiz-adv-x="668" vert-adv-y="1000"  />

      
      <glyph glyph-name="uni0103" unicode="&#x0103;" d="M467 302L467 105Q467 93 469.50 90Q472 87 483 87L518 87L518-5Q481-12 448-12Q378-12 352 45L350 45Q323 22 279.50 3.50Q236-15 195-15Q116-15 74 27Q32 69 32 137Q32 218 88 256.50Q144 295 270 295L335 295L335 317Q335 357 309.50 371.50Q284 386 253 386Q171 386 93 351L61 454Q156 497 260 497Q363 497 415 446.50Q467 396 467 302M335 208L284 208Q161 208 161 149Q161 91 225 91Q289 91 335 124L335 208M288 674Q377 674 421 708L463 644Q410 567 288 567Q168 567 115 644L157 708Q205 674 288 674Z"  horiz-adv-x="543" vert-adv-y="1000"  />

      
      <glyph glyph-name="uni0104" unicode="&#x0104;" d="M559-213Q504-213 473.50-184.50Q443-156 443-110Q443-42 512 0L467 140L201 140L155 0L3 0L253 680L415 680L665 0Q605-11 576-35.50Q547-60 547-86Q547-108 557-117Q567-126 588-126Q617-126 641-108L652-188Q612-213 559-213M335 538L332 538L239 252L428 252L335 538Z"  horiz-adv-x="668" vert-adv-y="1000"  />

      
      <glyph glyph-name="uni0105" unicode="&#x0105;" d="M467 302L467 105Q467 93 469.50 90Q472 87 483 87L518 87L518-5Q486-18 455.50-42Q425-66 425-91Q425-111 435-118.50Q445-126 466-126Q495-126 519-108L530-188Q490-213 437-213Q381-213 351-184.50Q321-156 321-110Q321-49 391 0Q367 12 352 45L350 45Q323 22 279.50 3.50Q236-15 195-15Q116-15 74 27Q32 69 32 137Q32 218 88 256.50Q144 295 270 295L335 295L335 317Q335 357 309.50 371.50Q284 386 253 386Q171 386 93 351L61 454Q156 497 260 497Q363 497 415 446.50Q467 396 467 302M335 208L284 208Q161 208 161 149Q161 91 225 91Q289 91 335 124L335 208Z"  horiz-adv-x="543" vert-adv-y="1000"  />

      
      <glyph glyph-name="uni0106" unicode="&#x0106;" d="M132.50 81.50Q132.50 81.50 89.25 129.75Q46 178 46 340Q46 502 132.50 598.50Q219 695 377 695Q474 695 570 651L533 541Q453 576 377 576Q288 576 239.50 512Q191 448 191 340Q191 232 239.50 168Q288 104 377 104Q453 104 533 139L570 29Q474-15 377-15Q219-15 132.50 81.50M507 896L507 887L424 750L296 750L296 760L355 896L507 896Z"  horiz-adv-x="605" vert-adv-y="1000"  />

      
      <glyph glyph-name="uni0107" unicode="&#x0107;" d="M105 54Q105 54 71.50 88.50Q38 123 38 241Q38 359 105 428Q172 497 294 497Q367 497 444 468L417 365Q352 386 310 386Q251 386 213.50 350.50Q176 315 176 241Q176 166 212.50 131Q249 96 310 96Q352 96 417 117L444 14Q367-15 294-15Q172-15 105 54M448 713L448 704L345 567L227 567L227 577L306 713L448 713Z"  horiz-adv-x="479" vert-adv-y="1000"  />

      
      <glyph glyph-name="uni0108" unicode="&#x0108;" d="M132.50 81.50Q132.50 81.50 89.25 129.75Q46 178 46 340Q46 502 132.50 598.50Q219 695 377 695Q474 695 570 651L533 541Q453 576 377 576Q288 576 239.50 512Q191 448 191 340Q191 232 239.50 168Q288 104 377 104Q453 104 533 139L570 29Q474-15 377-15Q219-15 132.50 81.50M434 896L545 760L545 750L433 750L370 829L308 750L196 750L196 760L307 896L434 896Z"  horiz-adv-x="605" vert-adv-y="1000"  />

      
      <glyph glyph-name="uni0109" unicode="&#x0109;" d="M105 54Q105 54 71.50 88.50Q38 123 38 241Q38 359 105 428Q172 497 294 497Q367 497 444 468L417 365Q352 386 310 386Q251 386 213.50 350.50Q176 315 176 241Q176 166 212.50 131Q249 96 310 96Q352 96 417 117L444 14Q367-15 294-15Q172-15 105 54M351 713L442 577L442 567L330 567L277 636L225 567L113 567L113 577L204 713L351 713Z"  horiz-adv-x="479" vert-adv-y="1000"  />

      
      <glyph glyph-name="uni010A" unicode="&#x010A;" d="M132.50 81.50Q132.50 81.50 89.25 129.75Q46 178 46 340Q46 502 132.50 598.50Q219 695 377 695Q474 695 570 651L533 541Q453 576 377 576Q288 576 239.50 512Q191 448 191 340Q191 232 239.50 168Q288 104 377 104Q453 104 533 139L570 29Q474-15 377-15Q219-15 132.50 81.50M316.50 765.50Q316.50 765.50 305.75 775.75Q295 786 295 819Q295 852 316.50 872.50Q338 893 373 893Q409 893 430.50 872.50Q452 852 452 819Q452 786 430.50 765.50Q409 745 373 745Q338 745 316.50 765.50Z"  horiz-adv-x="605" vert-adv-y="1000"  />

      
      <glyph glyph-name="uni010B" unicode="&#x010B;" d="M105 54Q105 54 71.50 88.50Q38 123 38 241Q38 359 105 428Q172 497 294 497Q367 497 444 468L417 365Q352 386 310 386Q251 386 213.50 350.50Q176 315 176 241Q176 166 212.50 131Q249 96 310 96Q352 96 417 117L444 14Q367-15 294-15Q172-15 105 54M220.50 586.50Q220.50 586.50 209.75 596.75Q199 607 199 640Q199 673 220.50 693.50Q242 714 277 714Q313 714 334.50 693.50Q356 673 356 640Q356 607 334.50 586.50Q313 566 277 566Q242 566 220.50 586.50Z"  horiz-adv-x="479" vert-adv-y="1000"  />

      
      <glyph glyph-name="uni010C" unicode="&#x010C;" d="M132.50 81.50Q132.50 81.50 89.25 129.75Q46 178 46 340Q46 502 132.50 598.50Q219 695 377 695Q474 695 570 651L533 541Q453 576 377 576Q288 576 239.50 512Q191 448 191 340Q191 232 239.50 168Q288 104 377 104Q453 104 533 139L570 29Q474-15 377-15Q219-15 132.50 81.50M305 750L194 886L194 896L306 896L369 817L431 896L543 896L543 886L432 750L305 750Z"  horiz-adv-x="605" vert-adv-y="1000"  />

      
      <glyph glyph-name="uni010D" unicode="&#x010D;" d="M105 54Q105 54 71.50 88.50Q38 123 38 241Q38 359 105 428Q172 497 294 497Q367 497 444 468L417 365Q352 386 310 386Q251 386 213.50 350.50Q176 315 176 241Q176 166 212.50 131Q249 96 310 96Q352 96 417 117L444 14Q367-15 294-15Q172-15 105 54M204 567L113 703L113 713L225 713L278 644L330 713L442 713L442 703L351 567L204 567Z"  horiz-adv-x="479" vert-adv-y="1000"  />

      
      <glyph glyph-name="uni010E" unicode="&#x010E;" d="M79 0L79 680L292 680Q478 680 559 595.50Q640 511 640 340Q640 169 559 84.50Q478 0 292 0L79 0M218 116L279 116Q406 116 450.50 167Q495 218 495 340Q495 462 450.50 513Q406 564 279 564L218 564L218 116M261 750L150 886L150 896L262 896L325 817L387 896L499 896L499 886L388 750L261 750Z"  horiz-adv-x="690" vert-adv-y="1000"  />

      
      <glyph glyph-name="uni010F" unicode="&#x010F;" d="M389 125L389 357Q340 386 292 386Q234 386 205.50 347Q177 308 177 241Q177 174 205.50 135Q234 96 292 96Q340 96 389 125M389 700L524 700L524 0L424 0L405 43L403 43Q378 25 362.50 15.50Q347 6 315-4.50Q283-15 250-15Q150-15 94.50 58Q39 131 39 241Q39 351 94.50 424Q150 497 250 497Q318 497 387 447L389 447L389 700M564 514L564 524L589 680L724 680L724 670L665 514L564 514Z"  horiz-adv-x="587" vert-adv-y="1000"  />

      
      <glyph glyph-name="uni0110" unicode="&#x0110;" d="M94 0L94 277L46 277L46 393L94 393L94 680L307 680Q493 680 574 595.50Q655 511 655 340Q655 169 574 84.50Q493 0 307 0L94 0M233 116L294 116Q421 116 465.50 167Q510 218 510 340Q510 462 465.50 513Q421 564 294 564L233 564L233 393L346 393L346 277L233 277L233 116Z"  horiz-adv-x="705" vert-adv-y="1000"  />

      
      <glyph glyph-name="uni0111" unicode="&#x0111;" d="M574 541L524 541L524 0L424 0L405 43L403 43Q378 25 362.50 15.50Q347 6 315-4.50Q283-15 250-15Q150-15 94.50 58Q39 131 39 241Q39 351 94.50 424Q150 497 250 497Q318 497 387 447L389 447L389 541L284 541L284 644L389 644L389 700L524 700L524 644L574 644L574 541M389 125L389 357Q340 386 292 386Q234 386 205.50 347Q177 308 177 241Q177 174 205.50 135Q234 96 292 96Q340 96 389 125Z"  horiz-adv-x="587" vert-adv-y="1000"  />

      
      <glyph glyph-name="uni0112" unicode="&#x0112;" d="M79 680L535 680L535 564L218 564L218 401L502 401L502 285L218 285L218 116L538 116L538 0L79 0L79 680M455 759L165 759L165 862L455 862L455 759Z"  horiz-adv-x="590" vert-adv-y="1000"  />

      
      <glyph glyph-name="uni0113" unicode="&#x0113;" d="M496 202L174 202Q178 151 209.50 122Q241 93 295 93Q366 93 449 123L480 26Q394-15 285-15Q165-15 101 57.50Q37 130 37 242Q37 350 101 423.50Q165 497 278 497Q389 497 446 438.50Q503 380 503 289Q503 242 496 202M174 286L379 286Q380 291 380 301Q380 399 279 399Q231 399 203.50 366Q176 333 174 286M428 579L138 579L138 682L428 682L428 579Z"  horiz-adv-x="539" vert-adv-y="1000"  />

      
      <glyph glyph-name="uni0114" unicode="&#x0114;" d="M79 680L535 680L535 564L218 564L218 401L502 401L502 285L218 285L218 116L538 116L538 0L79 0L79 680M314 858Q403 858 447 892L489 828Q436 751 314 751Q194 751 141 828L183 892Q231 858 314 858Z"  horiz-adv-x="590" vert-adv-y="1000"  />

      
      <glyph glyph-name="uni0115" unicode="&#x0115;" d="M496 202L174 202Q178 151 209.50 122Q241 93 295 93Q366 93 449 123L480 26Q394-15 285-15Q165-15 101 57.50Q37 130 37 242Q37 350 101 423.50Q165 497 278 497Q389 497 446 438.50Q503 380 503 289Q503 242 496 202M174 286L379 286Q380 291 380 301Q380 399 279 399Q231 399 203.50 366Q176 333 174 286M287 674Q376 674 420 708L462 644Q409 567 287 567Q167 567 114 644L156 708Q204 674 287 674Z"  horiz-adv-x="539" vert-adv-y="1000"  />

      
      <glyph glyph-name="uni0116" unicode="&#x0116;" d="M79 680L535 680L535 564L218 564L218 401L502 401L502 285L218 285L218 116L538 116L538 0L79 0L79 680M257.50 765.50Q257.50 765.50 246.75 775.75Q236 786 236 819Q236 852 257.50 872.50Q279 893 314 893Q350 893 371.50 872.50Q393 852 393 819Q393 786 371.50 765.50Q350 745 314 745Q279 745 257.50 765.50Z"  horiz-adv-x="590" vert-adv-y="1000"  />

      
      <glyph glyph-name="uni0117" unicode="&#x0117;" d="M496 202L174 202Q178 151 209.50 122Q241 93 295 93Q366 93 449 123L480 26Q394-15 285-15Q165-15 101 57.50Q37 130 37 242Q37 350 101 423.50Q165 497 278 497Q389 497 446 438.50Q503 380 503 289Q503 242 496 202M174 286L379 286Q380 291 380 301Q380 399 279 399Q231 399 203.50 366Q176 333 174 286M226.50 586.50Q226.50 586.50 215.75 596.75Q205 607 205 640Q205 673 226.50 693.50Q248 714 283 714Q319 714 340.50 693.50Q362 673 362 640Q362 607 340.50 586.50Q319 566 283 566Q248 566 226.50 586.50Z"  horiz-adv-x="539" vert-adv-y="1000"  />

      
      <glyph glyph-name="uni0118" unicode="&#x0118;" d="M469-213Q414-213 383.50-184.50Q353-156 353-110Q353-49 431 0L79 0L79 680L535 680L535 564L218 564L218 401L502 401L502 285L218 285L218 116L538 116L538 0Q507-12 482-38Q457-64 457-86Q457-108 467-117Q477-126 498-126Q527-126 551-108L562-188Q522-213 469-213Z"  horiz-adv-x="590" vert-adv-y="1000"  />

      
      <glyph glyph-name="uni0119" unicode="&#x0119;" d="M312-16L312-14Q304-15 285-15Q165-15 101 57.50Q37 130 37 242Q37 350 101 423.50Q165 497 278 497Q389 497 446 438.50Q503 380 503 289Q503 242 496 202L174 202Q178 151 209.50 122Q241 93 295 93Q366 93 449 123L480 26Q474 23 464 17.50Q454 12 449 10Q367-31 367-81Q367-126 408-126Q437-126 461-108L472-188Q432-213 379-213Q324-213 293.50-184.50Q263-156 263-110Q263-60 312-16M174 286L379 286Q380 291 380 301Q380 399 279 399Q231 399 203.50 366Q176 333 174 286Z"  horiz-adv-x="539" vert-adv-y="1000"  />

      
      <glyph glyph-name="uni011A" unicode="&#x011A;" d="M79 680L535 680L535 564L218 564L218 401L502 401L502 285L218 285L218 116L538 116L538 0L79 0L79 680M253 750L142 886L142 896L254 896L317 817L379 896L491 896L491 886L380 750L253 750Z"  horiz-adv-x="590" vert-adv-y="1000"  />

      
      <glyph glyph-name="uni011B" unicode="&#x011B;" d="M496 202L174 202Q178 151 209.50 122Q241 93 295 93Q366 93 449 123L480 26Q394-15 285-15Q165-15 101 57.50Q37 130 37 242Q37 350 101 423.50Q165 497 278 497Q389 497 446 438.50Q503 380 503 289Q503 242 496 202M174 286L379 286Q380 291 380 301Q380 399 279 399Q231 399 203.50 366Q176 333 174 286M210 567L119 703L119 713L231 713L284 644L336 713L448 713L448 703L357 567L210 567Z"  horiz-adv-x="539" vert-adv-y="1000"  />

      
      <glyph glyph-name="uni011C" unicode="&#x011C;" d="M368 365L628 365L628 44Q515-15 369-15Q212-15 129 81.50Q46 178 46 340Q46 493 133.50 594Q221 695 389 695Q512 695 620 646L580 538Q488 576 389 576Q287 576 239 513.50Q191 451 191 340Q191 104 375 104Q445 104 489 122L489 249L368 266L368 365M432 896L543 760L543 750L431 750L368 829L306 750L194 750L194 760L305 896L432 896Z"  horiz-adv-x="686" vert-adv-y="1000"  />

      
      <glyph glyph-name="uni011D" unicode="&#x011D;" d="M388 132L388 356Q337 386 291 386Q177 386 177 244Q177 105 291 105Q339 105 388 132M523 482L523 31Q523-89 458.50-151Q394-213 274-213Q173-213 85-166L124-67Q191-102 274-102Q334-102 361-77.50Q388-53 388 6L388 42L386 42Q320-6 249-6Q148-6 93.50 64Q39 134 39 244Q39 354 94 425.50Q149 497 249 497Q262 497 275 495Q288 493 297.50 491.50Q307 490 319 485Q331 480 337 477.50Q343 475 354.50 467.50Q366 460 369.50 458Q373 456 385 447.50Q397 439 398 438L400 438L418 482L523 482M376 713L467 577L467 567L355 567L302 636L250 567L138 567L138 577L229 713L376 713Z"  horiz-adv-x="586" vert-adv-y="1000"  />

      
      <glyph glyph-name="uni011E" unicode="&#x011E;" d="M368 365L628 365L628 44Q515-15 369-15Q212-15 129 81.50Q46 178 46 340Q46 493 133.50 594Q221 695 389 695Q512 695 620 646L580 538Q488 576 389 576Q287 576 239 513.50Q191 451 191 340Q191 104 375 104Q445 104 489 122L489 249L368 266L368 365M370 858Q459 858 503 892L545 828Q492 751 370 751Q250 751 197 828L239 892Q287 858 370 858Z"  horiz-adv-x="686" vert-adv-y="1000"  />

      
      <glyph glyph-name="uni011F" unicode="&#x011F;" d="M388 132L388 356Q337 386 291 386Q177 386 177 244Q177 105 291 105Q339 105 388 132M523 482L523 31Q523-89 458.50-151Q394-213 274-213Q173-213 85-166L124-67Q191-102 274-102Q334-102 361-77.50Q388-53 388 6L388 42L386 42Q320-6 249-6Q148-6 93.50 64Q39 134 39 244Q39 354 94 425.50Q149 497 249 497Q262 497 275 495Q288 493 297.50 491.50Q307 490 319 485Q331 480 337 477.50Q343 475 354.50 467.50Q366 460 369.50 458Q373 456 385 447.50Q397 439 398 438L400 438L418 482L523 482M302 674Q391 674 435 708L477 644Q424 567 302 567Q182 567 129 644L171 708Q219 674 302 674Z"  horiz-adv-x="586" vert-adv-y="1000"  />

      
      <glyph glyph-name="uni0120" unicode="&#x0120;" d="M368 365L628 365L628 44Q515-15 369-15Q212-15 129 81.50Q46 178 46 340Q46 493 133.50 594Q221 695 389 695Q512 695 620 646L580 538Q488 576 389 576Q287 576 239 513.50Q191 451 191 340Q191 104 375 104Q445 104 489 122L489 249L368 266L368 365M312.50 765.50Q312.50 765.50 301.75 775.75Q291 786 291 819Q291 852 312.50 872.50Q334 893 369 893Q405 893 426.50 872.50Q448 852 448 819Q448 786 426.50 765.50Q405 745 369 745Q334 745 312.50 765.50Z"  horiz-adv-x="686" vert-adv-y="1000"  />

      
      <glyph glyph-name="uni0121" unicode="&#x0121;" d="M388 132L388 356Q337 386 291 386Q177 386 177 244Q177 105 291 105Q339 105 388 132M523 482L523 31Q523-89 458.50-151Q394-213 274-213Q173-213 85-166L124-67Q191-102 274-102Q334-102 361-77.50Q388-53 388 6L388 42L386 42Q320-6 249-6Q148-6 93.50 64Q39 134 39 244Q39 354 94 425.50Q149 497 249 497Q262 497 275 495Q288 493 297.50 491.50Q307 490 319 485Q331 480 337 477.50Q343 475 354.50 467.50Q366 460 369.50 458Q373 456 385 447.50Q397 439 398 438L400 438L418 482L523 482M245.50 586.50Q245.50 586.50 234.75 596.75Q224 607 224 640Q224 673 245.50 693.50Q267 714 302 714Q338 714 359.50 693.50Q381 673 381 640Q381 607 359.50 586.50Q338 566 302 566Q267 566 245.50 586.50Z"  horiz-adv-x="586" vert-adv-y="1000"  />

      
      <glyph glyph-name="uni0122" unicode="&#x0122;" d="M368 365L628 365L628 44Q515-15 369-15Q212-15 129 81.50Q46 178 46 340Q46 493 133.50 594Q221 695 389 695Q512 695 620 646L580 538Q488 576 389 576Q287 576 239 513.50Q191 451 191 340Q191 104 375 104Q445 104 489 122L489 249L368 266L368 365M279-218L279-208L304-52L439-52L439-62L380-218L279-218Z"  horiz-adv-x="686" vert-adv-y="1000"  />

      
      <glyph glyph-name="uni0123" unicode="&#x0123;" d="M388 132L388 356Q337 386 291 386Q177 386 177 244Q177 105 291 105Q339 105 388 132M523 482L523 31Q523-89 458.50-151Q394-213 274-213Q173-213 85-166L124-67Q191-102 274-102Q334-102 361-77.50Q388-53 388 6L388 42L386 42Q320-6 249-6Q148-6 93.50 64Q39 134 39 244Q39 354 94 425.50Q149 497 249 497Q262 497 275 495Q288 493 297.50 491.50Q307 490 319 485Q331 480 337 477.50Q343 475 354.50 467.50Q366 460 369.50 458Q373 456 385 447.50Q397 439 398 438L400 438L418 482L523 482M394 723L394 713L369 557L234 557L234 567L293 723L394 723Z"  horiz-adv-x="586" vert-adv-y="1000"  />

      
      <glyph glyph-name="uni0124" unicode="&#x0124;" d="M504 0L504 285L218 285L218 0L79 0L79 680L218 680L218 401L504 401L504 680L643 680L643 0L504 0M424 896L535 760L535 750L423 750L360 829L298 750L186 750L186 760L297 896L424 896Z"  horiz-adv-x="722" vert-adv-y="1000"  />

      
      <glyph glyph-name="uni0125" unicode="&#x0125;" d="M523 0L388 0L388 290Q388 386 302 386Q244 386 198 340L198 0L63 0L63 700L198 700L198 442L200 442Q260 497 344 497Q429 497 476 444.50Q523 392 523 303L523 0M358 896L469 760L469 750L357 750L294 829L232 750L120 750L120 760L231 896L358 896Z"  horiz-adv-x="581" vert-adv-y="1000"  />

      
      <glyph glyph-name="uni0126" unicode="&#x0126;" d="M520 0L520 285L234 285L234 0L95 0L95 493L45 493L45 599L95 599L95 680L234 680L234 599L520 599L520 680L659 680L659 599L709 599L709 493L659 493L659 0L520 0M234 401L520 401L520 493L234 493L234 401Z"  horiz-adv-x="754" vert-adv-y="1000"  />

      
      <glyph glyph-name="uni0127" unicode="&#x0127;" d="M303 540L198 540L198 442L200 442Q260 497 344 497Q429 497 476 444.50Q523 392 523 303L523 0L388 0L388 290Q388 386 302 386Q244 386 198 340L198 0L63 0L63 540L13 540L13 643L63 643L63 700L198 700L198 643L303 643L303 540Z"  horiz-adv-x="581" vert-adv-y="1000"  />

      
      <glyph glyph-name="uni0128" unicode="&#x0128;" d="M218 680L218 0L79 0L79 680L218 680M2 761L-25 831Q-9 860 20 878.50Q49 897 81 897Q114 897 159.50 874.50Q205 852 230 852Q270 852 297 886L324 818Q307 787 278 769Q249 751 219 751Q188 751 139 773.50Q90 796 69 796Q31 796 2 761Z"  horiz-adv-x="297" vert-adv-y="1000"  />

      
      <glyph glyph-name="uni0129" unicode="&#x0129;" d="M198 0L63 0L63 482L198 482L198 0M-17 577L-44 647Q-28 676 1 694.50Q30 713 62 713Q95 713 140.50 690.50Q186 668 211 668Q251 668 278 702L305 634Q288 603 259 585Q230 567 200 567Q169 567 120 589.50Q71 612 50 612Q12 612-17 577Z"  horiz-adv-x="261" vert-adv-y="1000"  />

      
      <glyph glyph-name="uni012A" unicode="&#x012A;" d="M218 680L218 0L79 0L79 680L218 680M292 759L2 759L2 862L292 862L292 759Z"  horiz-adv-x="297" vert-adv-y="1000"  />

      
      <glyph glyph-name="uni012B" unicode="&#x012B;" d="M198 0L63 0L63 482L198 482L198 0M276 579L-14 579L-14 682L276 682L276 579Z"  horiz-adv-x="261" vert-adv-y="1000"  />

      
      <glyph glyph-name="uni012C" unicode="&#x012C;" d="M218 680L218 0L79 0L79 680L218 680M149 858Q238 858 282 892L324 828Q271 751 149 751Q29 751-24 828L18 892Q66 858 149 858Z"  horiz-adv-x="297" vert-adv-y="1000"  />

      
      <glyph glyph-name="uni012D" unicode="&#x012D;" d="M198 0L63 0L63 482L198 482L198 0M130 674Q219 674 263 708L305 644Q252 567 130 567Q10 567-43 644L-1 708Q47 674 130 674Z"  horiz-adv-x="261" vert-adv-y="1000"  />

      
      <glyph glyph-name="uni012E" unicode="&#x012E;" d="M126-213Q71-213 40.50-184.50Q10-156 10-110Q10-42 79 0L79 680L218 680L218 0Q167-11 140.50-36Q114-61 114-86Q114-108 124-117Q134-126 155-126Q184-126 208-108L219-188Q179-213 126-213Z"  horiz-adv-x="297" vert-adv-y="1000"  />

      
      <glyph glyph-name="uni012F" unicode="&#x012F;" d="M108-213Q53-213 22.50-184.50Q-8-156-8-110Q-8-44 63 2L63 482L198 482L198 0Q148-11 122-36Q96-61 96-86Q96-108 106-117Q116-126 137-126Q166-126 190-108L201-188Q161-213 108-213M74.50 586.50Q74.50 586.50 63.75 596.75Q53 607 53 640Q53 673 74.50 693.50Q96 714 131 714Q167 714 188.50 693.50Q210 673 210 640Q210 607 188.50 586.50Q167 566 131 566Q96 566 74.50 586.50Z"  horiz-adv-x="261" vert-adv-y="1000"  />

      
      <glyph glyph-name="uni0130" unicode="&#x0130;" d="M218 680L218 0L79 0L79 680L218 680M91.50 765.50Q91.50 765.50 80.75 775.75Q70 786 70 819Q70 852 91.50 872.50Q113 893 148 893Q184 893 205.50 872.50Q227 852 227 819Q227 786 205.50 765.50Q184 745 148 745Q113 745 91.50 765.50Z"  horiz-adv-x="297" vert-adv-y="1000"  />

      
      <glyph glyph-name="uni0131" unicode="&#x0131;" d="M198 0L63 0L63 482L198 482L198 0Z"  horiz-adv-x="261" vert-adv-y="1000"  />

      
      <glyph glyph-name="uni0132" unicode="&#x0132;" d="M218 680L218 0L79 0L79 680L218 680M304 56L367 156Q396 130 420.50 117Q445 104 481 104Q525 104 545.50 135Q566 166 566 216L566 680L705 680L705 207Q705 98 646.50 41.50Q588-15 481-15Q383-15 304 56Z"  horiz-adv-x="779" vert-adv-y="1000"  />

      
      <glyph glyph-name="uni0133" unicode="&#x0133;" d="M198 0L63 0L63 482L198 482L198 0M74.50 586.50Q74.50 586.50 63.75 596.75Q53 607 53 640Q53 673 74.50 693.50Q96 714 131 714Q167 714 188.50 693.50Q210 673 210 640Q210 607 188.50 586.50Q167 566 131 566Q96 566 74.50 586.50M324 482L459 482L459-31Q459-213 286-213Q253-213 216-206L216-97Q237-102 269-102Q298-102 311-87Q324-72 324-39L324 482M335.50 586.50Q335.50 586.50 324.75 596.75Q314 607 314 640Q314 673 335.50 693.50Q357 714 392 714Q428 714 449.50 693.50Q471 673 471 640Q471 607 449.50 586.50Q428 566 392 566Q357 566 335.50 586.50Z"  horiz-adv-x="522" vert-adv-y="1000"  />

      
      <glyph glyph-name="uni0134" unicode="&#x0134;" d="M7 56L70 156Q99 130 123.50 117Q148 104 184 104Q228 104 248.50 135Q269 166 269 216L269 680L408 680L408 207Q408 98 349.50 41.50Q291-15 184-15Q86-15 7 56M401 896L512 760L512 750L400 750L337 829L275 750L163 750L163 760L274 896L401 896Z"  horiz-adv-x="482" vert-adv-y="1000"  />

      
      <glyph glyph-name="uni0135" unicode="&#x0135;" d="M63 482L198 482L198-31Q198-213 25-213Q-8-213-45-206L-45-97Q-24-102 8-102Q37-102 50-87Q63-72 63-39L63 482M204 713L295 577L295 567L183 567L130 636L78 567L-34 567L-34 577L57 713L204 713Z"  horiz-adv-x="261" vert-adv-y="1000"  />

      
      <glyph glyph-name="uni0136" unicode="&#x0136;" d="M220 304L218 304L218 0L79 0L79 680L218 680L218 351L220 351L468 680L622 680L622 670L362 333L635 10L635 0L473 0L220 304M230-218L230-208L255-52L390-52L390-62L331-218L230-218Z"  horiz-adv-x="643" vert-adv-y="1000"  />

      
      <glyph glyph-name="uni0137" unicode="&#x0137;" d="M200 223L198 223L198 0L63 0L63 700L198 700L198 265L200 265L369 482L516 482L516 472L333 248L525 10L525 0L372 0L200 223M179-218L179-208L204-52L339-52L339-62L280-218L179-218Z"  horiz-adv-x="538" vert-adv-y="1000"  />

      
      <glyph glyph-name="uni0138" unicode="&#x0138;" d="M199 211L197 211L197 0L64 0L64 482L197 482L197 252L199 252L370 482L515 482L515 475L327 238L524 7L524 0L375 0L199 211Z"  horiz-adv-x="538" vert-adv-y="1000"  />

      
      <glyph glyph-name="uni0139" unicode="&#x0139;" d="M79 680L218 680L218 116L511 116L511 0L79 0L79 680M295 896L295 887L212 750L84 750L84 760L143 896L295 896Z"  horiz-adv-x="533" vert-adv-y="1000"  />

      
      <glyph glyph-name="uni013A" unicode="&#x013A;" d="M61 700L196 700L196 108Q196 96 198.50 93Q201 90 212 90L265 90L265-2Q228-9 185-9Q117-9 89 24.50Q61 58 61 132L61 700M275 896L275 887L192 750L64 750L64 760L123 896L275 896Z"  horiz-adv-x="290" vert-adv-y="1000"  />

      
      <glyph glyph-name="uni013B" unicode="&#x013B;" d="M79 680L218 680L218 116L511 116L511 0L79 0L79 680M208-218L208-208L233-52L368-52L368-62L309-218L208-218Z"  horiz-adv-x="533" vert-adv-y="1000"  />

      
      <glyph glyph-name="uni013C" unicode="&#x013C;" d="M61 700L196 700L196 108Q196 96 198.50 93Q201 90 212 90L265 90L265-2Q228-9 185-9Q117-9 89 24.50Q61 58 61 132L61 700M71-218L71-208L96-52L231-52L231-62L172-218L71-218Z"  horiz-adv-x="290" vert-adv-y="1000"  />

      
      <glyph glyph-name="uni013D" unicode="&#x013D;" d="M79 680L218 680L218 116L511 116L511 0L79 0L79 680M305 514L305 524L330 680L465 680L465 670L406 514L305 514Z"  horiz-adv-x="534" vert-adv-y="1000"  />

      
      <glyph glyph-name="uni013E" unicode="&#x013E;" d="M61 700L196 700L196 108Q196 96 198.50 93Q201 90 212 90L265 90L265-2Q228-9 185-9Q117-9 89 24.50Q61 58 61 132L61 700M238 514L238 524L263 680L398 680L398 670L339 514L238 514Z"  horiz-adv-x="285" vert-adv-y="1000"  />

      
      <glyph glyph-name="uni013F" unicode="&#x013F;" d="M79 680L218 680L218 116L511 116L511 0L79 0L79 680M351 298.50Q351 298.50 339.50 310.25Q328 322 328 361Q328 400 351 423.50Q374 447 413 447Q452 447 475 423.50Q498 400 498 361Q498 322 475 298.50Q452 275 413 275Q374 275 351 298.50Z"  horiz-adv-x="553" vert-adv-y="1000"  />

      
      <glyph glyph-name="uni0140" unicode="&#x0140;" d="M61 700L196 700L196 108Q196 96 198.50 93Q201 90 212 90L265 90L265-2Q228-9 185-9Q117-9 89 24.50Q61 58 61 132L61 700M281 298.50Q281 298.50 269.50 310.25Q258 322 258 361Q258 400 281 423.50Q304 447 343 447Q382 447 405 423.50Q428 400 428 361Q428 322 405 298.50Q382 275 343 275Q304 275 281 298.50Z"  horiz-adv-x="427" vert-adv-y="1000"  />

      
      <glyph glyph-name="uni0141" unicode="&#x0141;" d="M109 680L248 680L248 427L369 488L379 488L379 369L248 303L248 116L541 116L541 0L109 0L109 234L53 206L43 206L43 325L109 358L109 680Z"  horiz-adv-x="563" vert-adv-y="1000"  />

      
      <glyph glyph-name="uni0142" unicode="&#x0142;" d="M92 700L227 700L227 426L306 466L316 466L316 347L227 302L227 108Q227 96 229.50 93Q232 90 243 90L296 90L296-2Q259-9 216-9Q148-9 120 24.50Q92 58 92 132L92 234L32 204L22 204L22 323L92 358L92 700Z"  horiz-adv-x="334" vert-adv-y="1000"  />

      
      <glyph glyph-name="uni0143" unicode="&#x0143;" d="M515 211L518 211L518 680L657 680L657 0L510 0L221 469L218 469L218 0L79 0L79 680L226 680L515 211M510 896L510 887L427 750L299 750L299 760L358 896L510 896Z"  horiz-adv-x="736" vert-adv-y="1000"  />

      
      <glyph glyph-name="uni0144" unicode="&#x0144;" d="M63 482L171 482L189 435L191 435Q260 497 345 497Q429 497 476 444.50Q523 392 523 304L523 0L388 0L388 290Q388 386 302 386Q252 386 198 345L198 0L63 0L63 482M459 713L459 704L356 567L238 567L238 577L317 713L459 713Z"  horiz-adv-x="581" vert-adv-y="1000"  />

      
      <glyph glyph-name="uni0145" unicode="&#x0145;" d="M515 211L518 211L518 680L657 680L657 0L510 0L221 469L218 469L218 0L79 0L79 680L226 680L515 211M275-218L275-208L300-52L435-52L435-62L376-218L275-218Z"  horiz-adv-x="736" vert-adv-y="1000"  />

      
      <glyph glyph-name="uni0146" unicode="&#x0146;" d="M63 482L171 482L189 435L191 435Q260 497 345 497Q429 497 476 444.50Q523 392 523 304L523 0L388 0L388 290Q388 386 302 386Q252 386 198 345L198 0L63 0L63 482M197-218L197-208L222-52L357-52L357-62L298-218L197-218Z"  horiz-adv-x="581" vert-adv-y="1000"  />

      
      <glyph glyph-name="uni0147" unicode="&#x0147;" d="M515 211L518 211L518 680L657 680L657 0L510 0L221 469L218 469L218 0L79 0L79 680L226 680L515 211M307 750L196 886L196 896L308 896L371 817L433 896L545 896L545 886L434 750L307 750Z"  horiz-adv-x="736" vert-adv-y="1000"  />

      
      <glyph glyph-name="uni0148" unicode="&#x0148;" d="M63 482L171 482L189 435L191 435Q260 497 345 497Q429 497 476 444.50Q523 392 523 304L523 0L388 0L388 290Q388 386 302 386Q252 386 198 345L198 0L63 0L63 482M225 567L134 703L134 713L246 713L299 644L351 713L463 713L463 703L372 567L225 567Z"  horiz-adv-x="581" vert-adv-y="1000"  />

      
      <glyph glyph-name="uni0149" unicode="&#x0149;" d="M63 482L171 482L189 435L191 435Q260 497 345 497Q429 497 476 444.50Q523 392 523 304L523 0L388 0L388 290Q388 386 302 386Q252 386 198 345L198 0L63 0L63 482M-44 514L-44 524L-19 680L116 680L116 670L57 514L-44 514Z"  horiz-adv-x="581" vert-adv-y="1000"  />

      
      <glyph glyph-name="uni014A" unicode="&#x014A;" d="M515 221L518 221L518 680L657 680L657-31Q657-213 484-213Q451-213 414-206L414-88Q435-93 467-93Q496-93 507-81Q518-69 518-36L518 0L221 469L218 469L218 0L79 0L79 680L226 680L515 221Z"  horiz-adv-x="736" vert-adv-y="1000"  />

      
      <glyph glyph-name="uni014B" unicode="&#x014B;" d="M63 482L171 482L189 435L191 435Q260 497 345 497Q429 497 476 444.50Q523 392 523 304L523-31Q523-213 350-213Q317-213 280-206L280-97Q301-102 333-102Q362-102 375-87Q388-72 388-39L388 290Q388 386 302 386Q252 386 198 345L198 0L63 0L63 482Z"  horiz-adv-x="581" vert-adv-y="1000"  />

      
      <glyph glyph-name="uni014C" unicode="&#x014C;" d="M235.50 512Q235.50 512 213.75 480Q192 448 192 340Q192 232 235.50 168Q279 104 375 104Q470 104 513.50 168Q557 232 557 340Q557 448 513.50 512Q470 576 375 576Q279 576 235.50 512M619 596Q619 596 660.50 546.50Q702 497 702 340Q702 183 619 84Q536-15 375-15Q265-15 189.50 33.50Q114 82 80.50 160Q47 238 47 340Q47 442 80.50 520Q114 598 189.50 646.50Q265 695 375 695Q536 695 619 596M520 759L230 759L230 862L520 862L520 759Z"  horiz-adv-x="749" vert-adv-y="1000"  />

      
      <glyph glyph-name="uni014D" unicode="&#x014D;" d="M206.50 349Q206.50 349 190.75 330.50Q175 312 175 241Q175 170 206.50 133Q238 96 291 96Q346 96 377 133Q408 170 408 241Q408 312 377 349Q346 386 291 386Q238 386 206.50 349M479 424Q479 424 512.50 387.50Q546 351 546 241Q546 131 479 58Q412-15 291-15Q172-15 104.50 58Q37 131 37 241Q37 351 104.50 424Q172 497 291 497Q412 497 479 424M435 579L145 579L145 682L435 682L435 579Z"  horiz-adv-x="583" vert-adv-y="1000"  />

      
      <glyph glyph-name="uni014E" unicode="&#x014E;" d="M235.50 512Q235.50 512 213.75 480Q192 448 192 340Q192 232 235.50 168Q279 104 375 104Q470 104 513.50 168Q557 232 557 340Q557 448 513.50 512Q470 576 375 576Q279 576 235.50 512M619 596Q619 596 660.50 546.50Q702 497 702 340Q702 183 619 84Q536-15 375-15Q265-15 189.50 33.50Q114 82 80.50 160Q47 238 47 340Q47 442 80.50 520Q114 598 189.50 646.50Q265 695 375 695Q536 695 619 596M376 858Q465 858 509 892L551 828Q498 751 376 751Q256 751 203 828L245 892Q293 858 376 858Z"  horiz-adv-x="749" vert-adv-y="1000"  />

      
      <glyph glyph-name="uni014F" unicode="&#x014F;" d="M206.50 349Q206.50 349 190.75 330.50Q175 312 175 241Q175 170 206.50 133Q238 96 291 96Q346 96 377 133Q408 170 408 241Q408 312 377 349Q346 386 291 386Q238 386 206.50 349M479 424Q479 424 512.50 387.50Q546 351 546 241Q546 131 479 58Q412-15 291-15Q172-15 104.50 58Q37 131 37 241Q37 351 104.50 424Q172 497 291 497Q412 497 479 424M289 674Q378 674 422 708L464 644Q411 567 289 567Q169 567 116 644L158 708Q206 674 289 674Z"  horiz-adv-x="583" vert-adv-y="1000"  />

      
      <glyph glyph-name="uni0150" unicode="&#x0150;" d="M235.50 512Q235.50 512 213.75 480Q192 448 192 340Q192 232 235.50 168Q279 104 375 104Q470 104 513.50 168Q557 232 557 340Q557 448 513.50 512Q470 576 375 576Q279 576 235.50 512M619 596Q619 596 660.50 546.50Q702 497 702 340Q702 183 619 84Q536-15 375-15Q265-15 189.50 33.50Q114 82 80.50 160Q47 238 47 340Q47 442 80.50 520Q114 598 189.50 646.50Q265 695 375 695Q536 695 619 596M439 896L439 886L336 750L218 750L218 760L297 896L439 896M649 896L649 886L546 750L428 750L428 760L507 896L649 896Z"  horiz-adv-x="749" vert-adv-y="1000"  />

      
      <glyph glyph-name="uni0151" unicode="&#x0151;" d="M206.50 349Q206.50 349 190.75 330.50Q175 312 175 241Q175 170 206.50 133Q238 96 291 96Q346 96 377 133Q408 170 408 241Q408 312 377 349Q346 386 291 386Q238 386 206.50 349M479 424Q479 424 512.50 387.50Q546 351 546 241Q546 131 479 58Q412-15 291-15Q172-15 104.50 58Q37 131 37 241Q37 351 104.50 424Q172 497 291 497Q412 497 479 424M344 713L344 704L241 567L123 567L123 577L202 713L344 713M554 713L554 704L451 567L333 567L333 577L412 713L554 713Z"  horiz-adv-x="583" vert-adv-y="1000"  />

      
      </font>
</defs>
</svg>
